<svg id="Capa_1" data-name="Capa 1" xmlns="http://www.w3.org/2000/svg" xmlns:xlink="http://www.w3.org/1999/xlink" viewBox="0 0 1080 1080"><defs><style>.cls-1{fill:url(#Degradado_sin_nombre_10);}.cls-2{fill:#92bddf;}.cls-3{fill:#bfecff;}.cls-4{fill:#f7d755;}.cls-5{fill:#aed5fe;}.cls-6{fill:none;}.cls-6,.cls-7,.cls-8{stroke:#000;stroke-miterlimit:10;}.cls-8{fill:#fff;}</style><linearGradient id="Degradado_sin_nombre_10" x1="540" x2="540" y2="1080" gradientUnits="userSpaceOnUse"><stop offset="0" stop-color="#fcba9b"/><stop offset="1" stop-color="#e38eb3"/></linearGradient></defs><title>avatar</title><rect class="cls-1" width="1080" height="1080"/><path class="cls-2" d="M215.47,498.86s16.92-373.63,31-377.86c0,0,76.84,82.48,99.4,67,0,0,148-101.51,404.64,5.64l88.83-66.27s40.88,338.38,25.37,372.22c0,0,31,359.53-300.31,373.63S217.59,598.25,215.47,498.86Z" transform="translate(0.5 0.5)"/><path class="cls-3" d="M679.33,226a155.84,155.84,0,0,0-146.63,103,155.8,155.8,0,1,0,0,105.49A155.81,155.81,0,1,0,679.33,226Z" transform="translate(0.5 0.5)"/><path class="cls-4" d="M502.39,381.13s39.47-26.79,66.26,0l-25.12,30.36a11.07,11.07,0,0,1-17.2-.18Z" transform="translate(0.5 0.5)"/><path class="cls-5" d="M221.54,498.84a14.63,14.63,0,0,1,18.49-3c19.7,11.75,62.06,44.25,81.18,114.38,0,0,25.38,87.41,28.2,93S372,837.23,284.56,742.77c0,0-9.17,141.7-71.2,9.16,0,0-18.33,125.49-64.86,9.87C148.5,761.8,151.12,579.45,221.54,498.84Z" transform="translate(0.5 0.5)"/><path class="cls-5" d="M860.38,501.3C877.69,526,929.82,612.76,931,763.21c0,0-33.84,114.21-67.68-11.28,0,0-56.39,129.72-67.67-9.86,0,0-81.78,94.46-67.68-36.66,0,0,32.43-112.8,42.3-124.07,9.29-10.62,28.58-67.48,75.51-84.69A12.58,12.58,0,0,1,860.38,501.3Z" transform="translate(0.5 0.5)"/><path class="cls-4" d="M450.42,864.36l-3,25.75-31,22.55s-8.46,18.33,25.38,0c0,0,12.69,57.81,21.15,2.82,0,0,60.63,35.25,15.51-9.87l-7.05-9.86-.08-27.4S452,865.4,450.42,864.36Z" transform="translate(0.5 0.5)"/><path class="cls-4" d="M598.72,870.36l2.36,25.39s-56.4,63.44,2.82,19.73c0,0,22.56,53.58,22.56-2.82,0,0,60.63,25.38,11.28-14.09l-14.1-9.87-1.13-22.06Z" transform="translate(0.5 0.5)"/><path class="cls-5" d="M412.68,815.38l255.55,0c47.91,0,73.83-49.94,42.75-82.39L583.22,599.67c-22.41-23.4-63-23.41-85.45,0L370,733C338.87,765.41,364.77,815.37,412.68,815.38Z" transform="translate(0.5 0.5)"/><path class="cls-6" d="M495.34,634.91s45.11-35.25,81.77,0" transform="translate(0.5 0.5)"/><path class="cls-6" d="M438.94,678.62s29.61-32.43,63.45,0" transform="translate(0.5 0.5)"/><path class="cls-6" d="M541.86,678.62s45.12-45.12,86,0" transform="translate(0.5 0.5)"/><path class="cls-6" d="M405.1,713.87s45.12-35.25,79,0" transform="translate(0.5 0.5)"/><path class="cls-6" d="M502.39,713.87s33.84-29.61,59.21,0" transform="translate(0.5 0.5)"/><path class="cls-6" d="M592.62,713.87s39.48-35.25,70.5,0" transform="translate(0.5 0.5)"/><path class="cls-6" d="M368.45,756.16s39.47-39.47,83.18,0" transform="translate(0.5 0.5)"/><path class="cls-6" d="M484.06,756.16s35.25-36.65,77.54,0" transform="translate(0.5 0.5)"/><path class="cls-6" d="M592.62,756.16c4.23-2.82,47.94-38.06,84.6,0" transform="translate(0.5 0.5)"/><path class="cls-6" d="M422,790s18.33-25.38,62,0" transform="translate(0.5 0.5)"/><path class="cls-6" d="M517.9,784.36c4.23,2.82,45.11-36.66,79,0" transform="translate(0.5 0.5)"/><circle class="cls-7" cx="382.34" cy="382.33" r="102.22"/><circle class="cls-7" cx="692.52" cy="382.33" r="102.22"/><circle class="cls-8" cx="329.47" cy="322.41" r="21.15"/><circle class="cls-8" cx="649.52" cy="313.95" r="21.15"/></svg>