<svg id="Capa_1" data-name="Capa 1" xmlns="http://www.w3.org/2000/svg" xmlns:xlink="http://www.w3.org/1999/xlink" viewBox="0 0 851 317.5"><defs><style>.cls-1,.cls-17{fill:none;}.cls-2{fill:url(#Degradado_sin_nombre_9);}.cls-3{fill:#7acd9b;}.cls-4{fill:#548e6f;}.cls-5{fill:#64a87f;}.cls-6{fill:#476e56;}.cls-7{fill:#d85250;}.cls-8{fill:#2d313b;}.cls-9{fill:#6caa77;}.cls-10{fill:#5da06d;}.cls-11{fill:#f5b7c4;}.cls-12{clip-path:url(#clip-path);}.cls-13{fill:#92bddf;}.cls-14{fill:#bfecff;}.cls-15{fill:#f7d755;}.cls-16{fill:#aed5fe;}.cls-17{stroke:#000;stroke-miterlimit:10;stroke-width:0.04px;}.cls-18{fill:#fff;}.cls-19{fill:#fc7372;}.cls-20{fill:#e3eee3;}</style><linearGradient id="Degradado_sin_nombre_9" x1="425.5" x2="425.5" y2="316" gradientUnits="userSpaceOnUse"><stop offset="0" stop-color="#9cb7da"/><stop offset="1" stop-color="#e28db3"/></linearGradient><clipPath id="clip-path" transform="translate(-0.5 0.5)"><rect class="cls-1" x="75" y="233" width="42" height="42"/></clipPath></defs><title>background</title><rect class="cls-2" width="851" height="316"/><rect class="cls-3" x="605.5" y="227.5" width="3" height="81"/><path class="cls-3" d="M605.5,295a6.81,6.81,0,0,1-4.37-.48,1.27,1.27,0,0,0-1.58,1.82,9.84,9.84,0,0,0,5.21,4.12,1.27,1.27,0,0,0,1.74-1.18v-4.44Z" transform="translate(-0.5 0.5)"/><path class="cls-3" d="M608,295c1.5-.46,4.5-3.46,6.5-3.46a4.45,4.45,0,0,1-2,5,11,11,0,0,0,4,2s-7,2-8,5Z" transform="translate(-0.5 0.5)"/><path class="cls-4" d="M764.78,301.56S712.72,302.8,709,309c0,0,8.06-27.89,11.78-31.61l-11.16-1.24L767.88,66.66V300.94S765.4,300.94,764.78,301.56Z" transform="translate(-0.5 0.5)"/><path class="cls-5" d="M771.22,301.56S823.28,302.8,827,309c0,0-8.06-27.89-11.78-31.61l11.16-1.24L768.12,66.66V300.94S770.6,300.94,771.22,301.56Z" transform="translate(-0.5 0.5)"/><path class="cls-4" d="M486,303s-42,1-45,6c0,0,6.5-22.5,9.5-25.5l-9-1,47-169v189S486.5,302.5,486,303Z" transform="translate(-0.5 0.5)"/><path class="cls-5" d="M491,303s42,1,45,6c0,0-6.5-22.5-9.5-25.5l9-1-47-169v189S490.5,302.5,491,303Z" transform="translate(-0.5 0.5)"/><path class="cls-6" d="M.5,287.5,12,299l20.5-20.5-9,21,16-21,6,21,6-21v21l8-10v10l10-10,5,10,13-10,6,10,15-10,7,10,9-26v26l13-26v26l10-13,7,13,8-13,8,13,11-13,9,13v-20l5,20,5-26,3,26,14-13,12,13,4-13,13,13,10-13,9,13,9-13,10,13,6-13,8,13,6-13,11,13,11-26,8,26,5-21,4,17,12-22,12,26,9-13,4,13,8-13,8,13,11-13,9,13,9-13,6,13,6-16,7,16,15-13,10,13,19-13,10,13,7-26,3,22,13-22,9,26,14-22,9,18,19-9,14,13,11-17,10,17,9-13,7,13,7-13,7,13,6-13,7,13,10-13,8,13,5-26,4,26,11-13,8,13,11-13,6,13,15-13,8,13,8-13,9,13v-17l7,17,8-13,9,13,9-13,7,13,9-21,8,21v-26l10,26v-29s9,25,11,25,3-28,3-28l11,32,5-27,1,43H.5Z" transform="translate(-0.5 0.5)"/><path class="cls-7" d="M37,315.5S54,272,70,268s38-8,38-8-8.2,45-11.6,55.5,7.1-43,66.1-28c0,0,29.68,12.75,34.34,29.38Z" transform="translate(-0.5 0.5)"/><rect class="cls-8" x="247" y="193" width="12" height="122"/><ellipse class="cls-9" cx="253.5" cy="207" rx="32.5" ry="61"/><rect class="cls-8" x="358" y="260" width="6" height="55"/><ellipse class="cls-9" cx="380.5" cy="260" rx="22.5" ry="32"/><ellipse class="cls-9" cx="376" cy="211" rx="22" ry="40"/><ellipse class="cls-10" cx="344.5" cy="211.5" rx="23.5" ry="31.5"/><path class="cls-11" d="M607,211s-4,6-3,6c0,0-3-4-2-6,0,0-8.5,13.5,5.5,16.5,0,0,11-1,7-15,0,0-4,3-4,5C610.5,217.5,608.5,211.5,607,211Z" transform="translate(-0.5 0.5)"/><path class="cls-3" d="M605,235s-3,1-7-2c0,0,0,6,8,8v-6.16Z" transform="translate(-0.5 0.5)"/><path class="cls-3" d="M605.5,246s-3,1-7-2c0,0,0,6,8,8v-6.16Z" transform="translate(-0.5 0.5)"/><path class="cls-3" d="M605.5,258s-3,1-7-2c0,0,0,6,8,8v-6.16Z" transform="translate(-0.5 0.5)"/><path class="cls-3" d="M605.5,270s-3,1-7-2c0,0,0,6,8,8v-6.16Z" transform="translate(-0.5 0.5)"/><path class="cls-3" d="M605.5,281s-3,1-7-2c0,0,0,6,8,8v-6.16Z" transform="translate(-0.5 0.5)"/><path class="cls-3" d="M609.5,281s3,1,7-2c0,0,0,6-8,8v-6.16Z" transform="translate(-0.5 0.5)"/><path class="cls-3" d="M609.5,270s3,1,7-2c0,0,0,6-8,8v-6.16Z" transform="translate(-0.5 0.5)"/><path class="cls-3" d="M609.5,257s3,1,7-2c0,0,0,6-8,8v-6.16Z" transform="translate(-0.5 0.5)"/><path class="cls-3" d="M609.5,246s3,1,7-2c0,0,0,6-8,8v-6.16Z" transform="translate(-0.5 0.5)"/><path class="cls-3" d="M609.5,234s3,1,7-2c0,0,0,6-8,8v-6.16Z" transform="translate(-0.5 0.5)"/><g class="cls-12"><g class="cls-12"><path class="cls-13" d="M86.74,251.63s.47-10.31.86-10.42c0,0,2.12,2.27,2.74,1.84,0,0,4.08-2.8,11.16.16l2.45-1.83s1.13,9.33.7,10.27c0,0,.86,9.91-8.28,10.3s-9.57-7.58-9.63-10.32" transform="translate(-0.5 0.5)"/><path class="cls-14" d="M99.54,244.1A4.32,4.32,0,0,0,95.49,247a4.3,4.3,0,1,0,0,2.9,4.3,4.3,0,1,0,4.05-5.75" transform="translate(-0.5 0.5)"/><path class="cls-15" d="M94.66,248.38s1.09-.74,1.83,0l-.7.84a.3.3,0,0,1-.47,0Z" transform="translate(-0.5 0.5)"/><path class="cls-16" d="M86.91,251.63a.4.4,0,0,1,.51-.08,5.11,5.11,0,0,1,2.24,3.15s.7,2.41.78,2.57.62,3.69-1.79,1.09c0,0-.25,3.9-2,.25,0,0-.51,3.46-1.79.27,0,0,.07-5,2-7.25" transform="translate(-0.5 0.5)"/><path class="cls-16" d="M104.53,251.7a12.77,12.77,0,0,1,2,7.22s-.93,3.15-1.87-.31c0,0-1.55,3.58-1.86-.27,0,0-2.26,2.6-1.87-1a28,28,0,0,1,1.17-3.43c.25-.29.79-1.86,2.08-2.33a.33.33,0,0,1,.4.13" transform="translate(-0.5 0.5)"/><path class="cls-15" d="M93.22,261.71l-.08.71-.85.62s-.24.51.7,0c0,0,.35,1.6.58.08,0,0,1.67,1,.43-.27l-.2-.27v-.76a5.74,5.74,0,0,1-.58-.11" transform="translate(-0.5 0.5)"/><path class="cls-15" d="M97.32,261.87l.06.71s-1.55,1.75.08.54c0,0,.62,1.48.62-.08,0,0,1.67.7.31-.39l-.39-.27,0-.61Z" transform="translate(-0.5 0.5)"/><path class="cls-16" d="M92.18,260.36h7a1.37,1.37,0,0,0,1.18-2.27l-3.52-3.68a1.67,1.67,0,0,0-2.36,0L91,258.09a1.37,1.37,0,0,0,1.17,2.27" transform="translate(-0.5 0.5)"/><path class="cls-17" d="M94.46,255.38a1.78,1.78,0,0,1,2.26,0" transform="translate(-0.5 0.5)"/><path class="cls-17" d="M92.91,256.59a1.17,1.17,0,0,1,1.75,0" transform="translate(-0.5 0.5)"/><path class="cls-17" d="M95.75,256.59a1.6,1.6,0,0,1,2.37,0" transform="translate(-0.5 0.5)"/><path class="cls-17" d="M92,257.56s1.25-1,2.18,0" transform="translate(-0.5 0.5)"/><path class="cls-17" d="M94.66,257.56s.93-.82,1.63,0" transform="translate(-0.5 0.5)"/><path class="cls-17" d="M97.15,257.56s1.09-1,1.94,0" transform="translate(-0.5 0.5)"/><path class="cls-17" d="M91,258.73a1.63,1.63,0,0,1,2.3,0" transform="translate(-0.5 0.5)"/><path class="cls-17" d="M94.15,258.73a1.5,1.5,0,0,1,2.14,0" transform="translate(-0.5 0.5)"/><path class="cls-17" d="M97.15,258.73a1.71,1.71,0,0,1,2.33,0" transform="translate(-0.5 0.5)"/><path class="cls-17" d="M92.44,259.66s.51-.7,1.71,0" transform="translate(-0.5 0.5)"/><path class="cls-17" d="M95.09,259.5c.11.08,1.24-1,2.17,0" transform="translate(-0.5 0.5)"/><path d="M94.15,248.4a2.82,2.82,0,1,1-2.82-2.82,2.82,2.82,0,0,1,2.82,2.82" transform="translate(-0.5 0.5)"/><circle class="cls-17" cx="90.83" cy="248.9" r="2.82"/><path d="M102.71,248.4a2.82,2.82,0,1,1-2.82-2.82,2.82,2.82,0,0,1,2.82,2.82" transform="translate(-0.5 0.5)"/><circle class="cls-17" cx="99.39" cy="248.9" r="2.82"/><path class="cls-18" d="M90.46,246.75a.59.59,0,0,1-1.17,0,.59.59,0,1,1,1.17,0" transform="translate(-0.5 0.5)"/><circle class="cls-17" cx="89.38" cy="247.25" r="0.58"/><path class="cls-18" d="M99.29,246.51a.59.59,0,0,1-.59.59.59.59,0,0,1,0-1.17.59.59,0,0,1,.59.58" transform="translate(-0.5 0.5)"/><circle class="cls-17" cx="98.2" cy="247.01" r="0.58"/></g></g><polygon class="cls-19" points="100.98 261.86 90.5 273.5 95.5 314.5 108.5 260.5 100.98 261.86"/><path class="cls-19" d="M128,261" transform="translate(-0.5 0.5)"/><polygon class="cls-19" points="67.65 269.61 81.5 303.5 74.5 315.5 57.5 315.5 67.65 269.61"/><path class="cls-19" d="M147.5,286.5,147,315l50,2S176,282,147.5,286.5Z" transform="translate(-0.5 0.5)"/><path class="cls-10" d="M254,146l-.34,121.5S226,267,221.5,211C221.5,211,221,147,254,146Z" transform="translate(-0.5 0.5)"/><ellipse class="cls-10" cx="345.5" cy="255.5" rx="24.5" ry="31.5"/><ellipse class="cls-20" cx="224" cy="74" rx="25.5" ry="13.5"/><ellipse class="cls-20" cx="259" cy="56.5" rx="63.5" ry="18"/><ellipse class="cls-20" cx="192" cy="56.5" rx="26.5" ry="7"/><ellipse class="cls-20" cx="240.5" cy="43" rx="45" ry="17.5"/><ellipse class="cls-20" cx="405" cy="73" rx="59.5" ry="19.5"/><ellipse class="cls-20" cx="393.5" cy="46.5" rx="36" ry="15"/><ellipse class="cls-20" cx="486.5" cy="64.5" rx="31" ry="25"/><ellipse class="cls-20" cx="442.5" cy="47.5" rx="45" ry="25"/><ellipse class="cls-20" cx="611.5" cy="86" rx="30" ry="14.5"/><ellipse class="cls-20" cx="580.76" cy="67.08" rx="19" ry="27" transform="translate(489.52 645.11) rotate(-87.66)"/><ellipse class="cls-20" cx="648" cy="67" rx="31.5" ry="19.5"/><ellipse class="cls-20" cx="616.17" cy="34.27" rx="30" ry="14.5" transform="translate(-1.44 30.91) rotate(-2.82)"/><ellipse class="cls-20" cx="648.28" cy="51.14" rx="27" ry="19" transform="translate(-0.91 5.97) rotate(-0.48)"/><ellipse class="cls-20" cx="580.65" cy="55.05" rx="31.5" ry="19.5" transform="translate(-2.51 29.18) rotate(-2.82)"/><ellipse class="cls-20" cx="771.5" cy="39.5" rx="63" ry="17"/><ellipse class="cls-20" cx="611.5" cy="57" rx="30" ry="15.5"/><ellipse class="cls-20" cx="78.5" cy="99" rx="30" ry="14.5"/><ellipse class="cls-20" cx="47.76" cy="80.08" rx="19" ry="27" transform="translate(-34.7 125.02) rotate(-87.66)"/><ellipse class="cls-20" cx="115" cy="80" rx="31.5" ry="19.5"/><ellipse class="cls-20" cx="83.17" cy="47.27" rx="30" ry="14.5" transform="translate(-2.73 4.66) rotate(-2.82)"/><ellipse class="cls-20" cx="115.28" cy="64.14" rx="27" ry="19" transform="translate(-1.04 1.48) rotate(-0.48)"/><ellipse class="cls-20" cx="47.65" cy="68.05" rx="31.5" ry="19.5" transform="translate(-3.8 2.93) rotate(-2.82)"/><ellipse class="cls-20" cx="78.5" cy="70" rx="30" ry="15.5"/></svg>