<svg width="375" height="812" viewBox="0 0 375 812" fill="none" xmlns="http://www.w3.org/2000/svg">
<path d="M53.5718 132.833L26.7861 268.667H80.3575L53.5718 132.833Z" fill="#444444" fill-opacity="0.1"/>
<path d="M53.5718 132.833L80.3575 -3H26.7861L53.5718 132.833Z" fill="#282B39" fill-opacity="0.1"/>
<path d="M107.143 132.833L133.929 -3H80.3571L107.143 132.833Z" fill="#AAAAAA" fill-opacity="0.1"/>
<path d="M160.714 132.833L133.929 268.667H187.5L160.714 132.833Z" fill="#DDDDDD" fill-opacity="0.1"/>
<path d="M160.714 132.833L187.5 -3H133.929L160.714 132.833Z" fill="#999999" fill-opacity="0.1"/>
<path d="M214.286 132.833L187.5 268.667H241.071L214.286 132.833Z" fill="#282B39" fill-opacity="0.1"/>
<path d="M214.286 132.833L241.071 -3H187.5L214.286 132.833Z" fill="#DDDDDD" fill-opacity="0.1"/>
<path d="M267.857 132.833L241.071 268.667H294.643L267.857 132.833Z" fill="#444444" fill-opacity="0.1"/>
<path d="M267.857 132.833L294.643 -3H241.071L267.857 132.833Z" fill="white" fill-opacity="0.1"/>
<path d="M321.429 132.833L294.643 268.667H348.214L321.429 132.833Z" fill="#DDDDDD" fill-opacity="0.1"/>
<path d="M321.429 132.833L348.214 -3H294.643L321.429 132.833Z" fill="#444444" fill-opacity="0.1"/>
<path d="M53.5718 404.5L26.7861 540.333H80.3575L53.5718 404.5Z" fill="#DDDDDD" fill-opacity="0.1"/>
<path d="M53.5718 404.5L80.3575 268.667H26.7861L53.5718 404.5Z" fill="#282B39" fill-opacity="0.1"/>
<path d="M107.143 404.5L80.3571 540.333H133.929L107.143 404.5Z" fill="#666666" fill-opacity="0.1"/>
<path d="M107.143 404.5L133.929 268.667H80.3571L107.143 404.5Z" fill="#AAAAAA" fill-opacity="0.1"/>
<path d="M160.714 404.5L133.929 540.333H187.5L160.714 404.5Z" fill="#DDDDDD" fill-opacity="0.1"/>
<path d="M160.714 404.5L187.5 268.667H133.929L160.714 404.5Z" fill="#999999" fill-opacity="0.1"/>
<path d="M214.286 404.5L187.5 540.333H241.071L214.286 404.5Z" fill="#999999" fill-opacity="0.1"/>
<path d="M214.286 404.5L241.071 268.667H187.5L214.286 404.5Z" fill="white" fill-opacity="0.1"/>
<path d="M267.857 404.5L241.071 540.333H294.643L267.857 404.5Z" fill="#282B39" fill-opacity="0.1"/>
<path d="M267.857 404.5L294.643 268.667H241.071L267.857 404.5Z" fill="#DDDDDD" fill-opacity="0.1"/>
<path d="M321.429 404.5L294.643 540.333H348.214L321.429 404.5Z" fill="#AAAAAA" fill-opacity="0.1"/>
<path d="M321.429 404.5L348.214 268.667H294.643L321.429 404.5Z" fill="#444444" fill-opacity="0.1"/>
<path d="M53.5718 676.167L26.7861 812H80.3575L53.5718 676.167Z" fill="#222222" fill-opacity="0.1"/>
<path d="M107.143 676.167L80.3571 812H133.929L107.143 676.167Z" fill="#282B39" fill-opacity="0.1"/>
<path d="M107.143 676.167L133.929 540.333H80.3571L107.143 676.167Z" fill="#DDDDDD" fill-opacity="0.1"/>
<path d="M160.714 676.167L187.5 540.333H133.929L160.714 676.167Z" fill="#282B39" fill-opacity="0.1"/>
<path d="M214.286 676.167L187.5 812H241.071L214.286 676.167Z" fill="#282B39" fill-opacity="0.1"/>
<path d="M214.286 676.167L241.071 540.333H187.5L214.286 676.167Z" fill="#444444" fill-opacity="0.1"/>
<path d="M267.857 676.167L241.071 812H294.643L267.857 676.167Z" fill="#AAAAAA" fill-opacity="0.1"/>
<path d="M267.857 676.167L294.643 540.333H241.071L267.857 676.167Z" fill="#666666" fill-opacity="0.1"/>
<path d="M321.429 676.167L294.643 812H348.214L321.429 676.167Z" fill="#999999" fill-opacity="0.1"/>
<path d="M80.3572 -3L53.5714 132.833H107.143L80.3572 -3Z" fill="#999999" fill-opacity="0.1"/>
<path d="M133.929 -3L107.143 132.833H160.714L133.929 -3Z" fill="#444444" fill-opacity="0.1"/>
<path d="M187.5 -3L160.715 132.833H214.286L187.5 -3Z" fill="white" fill-opacity="0.1"/>
<path d="M294.643 -3L267.857 132.833H321.428L294.643 -3Z" fill="#282B39" fill-opacity="0.1"/>
<path d="M26.7857 268.667L0 404.5H53.5714L26.7857 268.667Z" fill="#222222" fill-opacity="0.1"/>
<path d="M26.7857 268.667L53.5714 132.833H0L26.7857 268.667Z" fill="white" fill-opacity="0.1"/>
<path d="M80.3572 268.667L53.5714 404.5H107.143L80.3572 268.667Z" fill="white" fill-opacity="0.1"/>
<path d="M80.3572 268.667L107.143 132.833H53.5714L80.3572 268.667Z" fill="#666666" fill-opacity="0.1"/>
<path d="M133.929 268.667L107.143 404.5H160.714L133.929 268.667Z" fill="#222222" fill-opacity="0.1"/>
<path d="M133.929 268.667L160.714 132.833H107.143L133.929 268.667Z" fill="white" fill-opacity="0.1"/>
<path d="M187.5 268.667L160.715 404.5H214.286L187.5 268.667Z" fill="#444444" fill-opacity="0.1"/>
<path d="M187.5 268.667L214.286 132.833H160.715L187.5 268.667Z" fill="#222222" fill-opacity="0.1"/>
<path d="M241.071 268.667L214.285 404.5H267.857L241.071 268.667Z" fill="#AAAAAA" fill-opacity="0.1"/>
<path d="M241.071 268.667L267.857 132.833H214.285L241.071 268.667Z" fill="#666666" fill-opacity="0.1"/>
<path d="M294.643 268.667L267.857 404.5H321.428L294.643 268.667Z" fill="white" fill-opacity="0.1"/>
<path d="M294.643 268.667L321.428 132.833H267.857L294.643 268.667Z" fill="#999999" fill-opacity="0.1"/>
<path d="M26.7857 540.333L0 676.167H53.5714L26.7857 540.333Z" fill="#282B39" fill-opacity="0.1"/>
<path d="M26.7857 540.333L53.5714 404.5H0L26.7857 540.333Z" fill="#666666" fill-opacity="0.1"/>
<path d="M80.3572 540.333L53.5714 676.167H107.143L80.3572 540.333Z" fill="#AAAAAA" fill-opacity="0.1"/>
<path d="M80.3572 540.333L107.143 404.5H53.5714L80.3572 540.333Z" fill="#444444" fill-opacity="0.1"/>
<path d="M133.929 540.333L107.143 676.167H160.714L133.929 540.333Z" fill="#444444" fill-opacity="0.1"/>
<path d="M133.929 540.333L160.714 404.5H107.143L133.929 540.333Z" fill="#999999" fill-opacity="0.1"/>
<path d="M187.5 540.333L214.286 404.5H160.715L187.5 540.333Z" fill="#666666" fill-opacity="0.1"/>
<path d="M241.071 540.333L214.285 676.167H267.857L241.071 540.333Z" fill="#222222" fill-opacity="0.1"/>
<path d="M294.643 540.333L267.857 676.167H321.428L294.643 540.333Z" fill="white" fill-opacity="0.1"/>
<path d="M294.643 540.333L321.428 404.5H267.857L294.643 540.333Z" fill="#222222" fill-opacity="0.1"/>
<path d="M26.7857 812L53.5714 676.167H0L26.7857 812Z" fill="#DDDDDD" fill-opacity="0.1"/>
<path d="M80.3572 812L107.143 676.167H53.5714L80.3572 812Z" fill="#444444" fill-opacity="0.1"/>
<path d="M133.929 812L160.714 676.167H107.143L133.929 812Z" fill="white" fill-opacity="0.1"/>
<path d="M187.5 812L214.286 676.167H160.715L187.5 812Z" fill="#AAAAAA" fill-opacity="0.1"/>
<path d="M241.071 812L267.857 676.167H214.285L241.071 812Z" fill="white" fill-opacity="0.1"/>
<path d="M294.643 812L321.428 676.167H267.857L294.643 812Z" fill="#222222" fill-opacity="0.1"/>
<path d="M348.214 268.667L321.428 404.5H375L348.214 268.667Z" fill="#222222" fill-opacity="0.1"/>
<path d="M348.214 268.667L375 132.833H321.428L348.214 268.667Z" fill="white" fill-opacity="0.1"/>
<path d="M348.214 540.333L321.428 676.167H375L348.214 540.333Z" fill="#282B39" fill-opacity="0.1"/>
<path d="M348.214 540.333L375 404.5H321.428L348.214 540.333Z" fill="#666666" fill-opacity="0.1"/>
<path d="M348.214 812L375 676.167H321.428L348.214 812Z" fill="#DDDDDD" fill-opacity="0.1"/>
</svg>
