<svg id="Capa_1" data-name="Capa 1" xmlns="http://www.w3.org/2000/svg" viewBox="0 0 360 390.5"><defs><style>.cls-1{fill:#23203c;}.cls-2{fill:#3f3459;}.cls-3{fill:#5000b9;}.cls-4{fill:#e8f524;}.cls-5{fill:#f9a221;}.cls-6{fill:#f66181;}.cls-7{fill:#9a201c;}.cls-8{fill:#e1a3fc;}.cls-11,.cls-9{fill:#333;}.cls-10{fill:#d8d8d8;}.cls-11{font-size:19px;font-family:ArialRoundedMTBold, Arial Rounded MT Bold;}.cls-12{letter-spacing:-0.01em;}.cls-13{letter-spacing:-0.04em;}</style></defs><title>defaultcover</title><rect class="cls-1" width="360" height="390"/><path class="cls-2" d="M360,76.64S302.5,161.5,261.5,89.5c0,0-49.64-60-44.82-89.5L359.5.5Z"/><path class="cls-2" d="M360,137.12s-16.5-29.82,0-54.72Z"/><path class="cls-2" d="M116.5,113.5s3-125,86-98c0,0,22,1,49,77S116.5,113.5,116.5,113.5Z"/><path class="cls-2" d="M293.5,241.5s31,108-108,97c0,0-112-39,20-97S293.5,241.5,293.5,241.5Z"/><path class="cls-2" d="M99.08,389.84s46.34-23.66,47.88,0Z"/><path class="cls-2" d="M303.56,389.84S274.5,302.5,180.5,362.5c0,0-19.2,7-23.1,27.5Z"/><path class="cls-2" d="M77.48,390S105.5,275.18,0,281.84L.5,390.5Z"/><rect class="cls-3" x="56.69" y="202.95" width="99.94" height="115.05" rx="7.6" transform="translate(-132.35 111.82) rotate(-35.85)"/><rect class="cls-4" x="69.27" y="156.79" width="99.94" height="143.09" rx="7.6" transform="translate(-81 66.29) rotate(-23.44)"/><polygon class="cls-5" points="76.32 168.97 62.5 185.5 95.5 187.5 95.5 194.5 53.7 202.8 57.54 211.65 101.5 219.5 99.5 223.5 73.5 228.5 99.5 228.5 101.5 250.5 89.5 271.5 106.5 260.5 121.5 277.5 119.24 306.32 142.8 296.11 149.43 277.5 88.06 163.88 76.32 168.97"/><rect class="cls-6" x="89.12" y="111.76" width="103.1" height="166.73" rx="7.6" transform="translate(-27.76 23.39) rotate(-8.66)"/><path class="cls-7" d="M78.46,125S86,118,99,125s14.88,17.67,32.44,12.83l-1.82,11S112.5,152.5,99.5,142.5s-16-2-10,1,28.11,12.79,36.56,26.89c0,0-18.56,79.11,15.44,98.11a60.8,60.8,0,0,0,25.05,7L136.93,280S119.5,266.5,116.5,265.5s-19-18-11-34,13.25-58.35-22.88-75.18Z"/><rect class="cls-8" x="125.68" y="84.56" width="176.2" height="190.63" rx="7.6" transform="translate(32.22 -32.48) rotate(9.39)"/><rect class="cls-9" x="243.5" y="206.5" width="29" height="2" rx="0.83" transform="matrix(0.81, 0.58, -0.58, 0.81, 168.27, -111.2)"/><polygon class="cls-10" points="196.57 115 297 182.64 253.48 251.01 157.5 183.97 196.57 115"/><rect class="cls-9" x="234.5" y="220.5" width="29" height="2" rx="0.83" transform="matrix(0.81, 0.58, -0.58, 0.81, 174.73, -103.38)"/><rect class="cls-9" x="239.5" y="213.5" width="29" height="2" rx="0.83" transform="matrix(0.81, 0.58, -0.58, 0.81, 171.59, -107.58)"/><rect class="cls-9" x="229.5" y="228.5" width="29" height="2" rx="0.83" transform="matrix(0.81, 0.58, -0.58, 0.81, 178.44, -98.99)"/><polygon class="cls-10" points="145.06 121.88 265.5 143.5 249.5 228.5 127.5 206.5 145.06 121.88"/><rect class="cls-9" x="200.31" y="183.36" width="47.34" height="2" rx="0.83" transform="translate(42.15 -41.67) rotate(11.73)"/><rect class="cls-9" x="198.31" y="191.36" width="47.34" height="2" rx="0.83" transform="translate(43.73 -41.1) rotate(11.73)"/><rect class="cls-9" x="197.31" y="199.36" width="47.34" height="2" rx="0.83" transform="translate(45.33 -40.73) rotate(11.73)"/><rect class="cls-9" x="195.31" y="208.36" width="47.34" height="2" rx="0.83" transform="translate(47.12 -40.14) rotate(11.73)"/><rect class="cls-9" x="139.31" y="197.36" width="47.34" height="2" rx="0.83" transform="translate(43.72 -28.98) rotate(11.73)"/><rect class="cls-9" x="141.31" y="188.36" width="47.34" height="2" rx="0.83" transform="translate(41.93 -29.58) rotate(11.73)"/><rect class="cls-9" x="143.31" y="180.36" width="47.34" height="2" rx="0.83" transform="translate(40.35 -30.15) rotate(11.73)"/><rect class="cls-9" x="144.31" y="172.36" width="47.34" height="2" rx="0.83" transform="translate(38.74 -30.52) rotate(11.73)"/><text class="cls-11" transform="translate(171 159.61) rotate(11.58)"><tspan class="cls-12">N</tspan><tspan x="14.19" y="0">A</tspan><tspan class="cls-13" x="27.85" y="0">B</tspan><tspan x="40.79" y="0">U</tspan></text></svg>