<svg width="326" height="208" viewBox="0 0 326 208" fill="none" xmlns="http://www.w3.org/2000/svg">
<g clip-path="url(#clip0_42:829)">
<path d="M283.291 163.1C283.218 163.005 283.146 162.91 283.075 162.815C283.003 162.72 282.932 162.625 282.861 162.529C282.791 162.433 282.72 162.337 282.65 162.241C282.58 162.145 282.51 162.048 282.44 161.951C282.324 159.164 282.322 156.401 282.435 153.663C282.546 150.945 282.769 148.259 283.106 145.605C283.438 142.972 283.878 140.379 284.426 137.827C284.97 135.294 285.618 132.81 286.371 130.373C286.457 130.092 286.544 129.812 286.633 129.533C286.721 129.254 286.812 128.977 286.904 128.702C286.996 128.426 287.089 128.151 287.184 127.877C287.279 127.603 287.375 127.33 287.473 127.058C288.198 125.023 288.996 123.038 289.866 121.103C290.731 119.181 291.665 117.313 292.668 115.497C293.663 113.694 294.724 111.947 295.851 110.255C296.97 108.576 298.152 106.956 299.395 105.394L299.591 105.149L299.788 104.906L299.985 104.663L300.183 104.422L300.326 104.249L300.47 104.077C300.518 104.02 300.566 103.963 300.615 103.906C300.664 103.849 300.713 103.793 300.763 103.737L300.881 103.671L300.999 103.605L301.116 103.539L301.232 103.473L301.239 103.471L301.247 103.467L301.254 103.464L301.262 103.461L301.309 103.435L301.355 103.408L301.4 103.381L301.445 103.354L301.648 103.242L301.85 103.132L302.053 103.022L302.253 102.91L302.1 102.831L301.715 102.634L301.718 102.633C301.751 102.647 301.784 102.662 301.816 102.679C301.849 102.695 301.882 102.71 301.914 102.725C301.947 102.741 301.98 102.757 302.012 102.773C302.044 102.789 302.077 102.805 302.109 102.821L302.147 102.838L302.184 102.854L302.222 102.871C302.235 102.876 302.247 102.882 302.259 102.89C302.27 102.895 302.281 102.9 302.292 102.904L302.325 102.919L302.359 102.933L302.392 102.948C303.793 103.609 305.199 104.281 306.586 104.985C307.972 105.689 309.338 106.422 310.667 107.212C311.992 107.996 313.276 108.85 314.514 109.773C315.749 110.691 316.917 111.699 318.01 112.791C319.164 113.951 320.196 115.233 321.088 116.616C321.972 117.974 322.698 119.434 323.252 120.966C323.786 122.424 324.104 123.956 324.196 125.512C324.284 127.007 324.08 128.506 323.595 129.919C323.529 130.104 323.458 130.285 323.382 130.464C323.307 130.644 323.226 130.82 323.14 130.994C323.054 131.167 322.963 131.338 322.867 131.505C322.771 131.673 322.67 131.837 322.564 131.999C322.52 132.066 322.475 132.133 322.429 132.199C322.383 132.265 322.337 132.331 322.289 132.396C322.242 132.46 322.194 132.525 322.146 132.589C322.098 132.654 322.049 132.718 321.999 132.781C321.081 133.969 319.915 134.928 318.587 135.588C317.251 136.245 315.8 136.615 314.321 136.677C312.767 136.744 311.214 136.511 309.743 135.992C308.164 135.438 306.698 134.591 305.415 133.493C304.972 133.116 304.552 132.711 304.157 132.28C303.766 131.853 303.402 131.402 303.065 130.928C302.732 130.459 302.427 129.969 302.153 129.46C301.882 128.955 301.642 128.432 301.437 127.895C301.34 129.563 301.591 131.233 302.174 132.792C302.789 134.432 303.625 135.974 304.657 137.373C305.747 138.864 306.956 140.257 308.272 141.54C309.597 142.848 311.005 144.074 312.395 145.204C313.785 146.333 315.225 147.488 316.619 148.693C318.011 149.877 319.336 151.142 320.588 152.482C321.802 153.777 322.876 155.203 323.791 156.737C324.69 158.251 325.339 159.907 325.714 161.639C326.115 163.525 326.094 165.48 325.654 167.358C325.441 168.271 325.136 169.159 324.745 170.008C324.352 170.864 323.88 171.679 323.337 172.444L323.286 172.513L323.235 172.583L323.183 172.652L323.13 172.721C321.804 174.506 320.139 175.994 318.237 177.095C317.28 177.65 316.27 178.103 315.225 178.45C314.155 178.804 313.052 179.049 311.935 179.179C309.809 179.38 307.666 179.254 305.577 178.804C303.425 178.34 301.334 177.619 299.344 176.657C297.287 175.666 295.321 174.486 293.469 173.132C291.601 171.771 289.832 170.271 288.177 168.643C287.738 168.212 287.306 167.772 286.882 167.325C286.458 166.878 286.042 166.423 285.635 165.961C285.227 165.498 284.827 165.029 284.437 164.552C284.047 164.075 283.665 163.591 283.291 163.1Z" fill="#F2F2F2"/>
<path d="M317.467 130.805C316.153 130.103 314.89 129.305 313.687 128.417C311.284 126.644 309.138 124.529 307.311 122.135C306.406 120.948 305.585 119.693 304.857 118.383C304.249 117.276 303.71 116.13 303.242 114.953C302.785 113.805 302.401 112.628 302.092 111.428C301.79 110.257 301.565 109.066 301.418 107.863C301.275 106.685 301.212 105.498 301.23 104.311C301.231 104.244 301.233 104.178 301.234 104.111C301.236 104.045 301.237 103.979 301.239 103.912C301.24 103.845 301.243 103.779 301.246 103.714L301.256 103.516C301.201 103.561 301.146 103.606 301.091 103.652L300.926 103.79L300.763 103.929L300.6 104.068L300.495 104.157L300.39 104.247L300.285 104.338L300.182 104.428L300.324 104.256L300.471 104.077C300.519 104.02 300.567 103.963 300.616 103.906C300.665 103.85 300.714 103.793 300.764 103.738L300.882 103.671L301 103.605L301.114 103.54L301.231 103.474L301.238 103.472L301.245 103.468L301.253 103.464L301.26 103.462L301.307 103.435L301.354 103.408L301.399 103.382L301.444 103.355L301.647 103.243L301.849 103.132L302.051 103.022L302.254 102.912L302.096 102.831L301.711 102.633L301.714 102.632C301.747 102.646 301.78 102.662 301.812 102.678C301.844 102.694 301.877 102.71 301.91 102.725C301.943 102.741 301.976 102.756 302.008 102.772C302.04 102.788 302.072 102.804 302.105 102.821L302.142 102.837L302.18 102.853L302.218 102.87C302.231 102.875 302.243 102.882 302.254 102.889L302.251 102.952L302.247 103.011L302.243 103.069L302.24 103.129C302.098 105.128 302.199 107.138 302.541 109.112C302.893 111.143 303.47 113.127 304.261 115.023C305.079 116.985 306.101 118.851 307.31 120.586C308.559 122.381 309.99 124.034 311.578 125.518C313.178 126.99 314.922 128.286 316.783 129.384C317.702 129.927 318.649 130.418 319.619 130.858C320.58 131.292 321.564 131.673 322.566 131.998C322.521 132.065 322.476 132.132 322.431 132.198C322.385 132.264 322.338 132.329 322.291 132.394C322.244 132.459 322.196 132.524 322.148 132.588C322.099 132.653 322.05 132.717 322.001 132.78C321.614 132.648 321.23 132.508 320.848 132.359C320.466 132.211 320.085 132.054 319.707 131.889C319.329 131.725 318.953 131.552 318.58 131.371C318.207 131.189 317.836 131.001 317.467 130.805Z" fill="white"/>
<path d="M291.462 145.749C291.032 145.088 290.626 144.414 290.244 143.728C289.862 143.043 289.505 142.347 289.173 141.642C288.842 140.937 288.535 140.223 288.254 139.501C287.973 138.778 287.718 138.049 287.49 137.313C287.373 136.923 287.266 136.532 287.167 136.139C287.069 135.746 286.98 135.352 286.9 134.958C286.82 134.564 286.749 134.169 286.687 133.773C286.625 133.378 286.573 132.982 286.53 132.587C286.508 132.403 286.489 132.218 286.472 132.033C286.455 131.848 286.439 131.664 286.426 131.479C286.413 131.294 286.401 131.11 286.392 130.925C286.383 130.741 286.375 130.557 286.369 130.373C286.455 130.092 286.542 129.812 286.631 129.534C286.72 129.255 286.81 128.977 286.902 128.701C286.994 128.425 287.087 128.149 287.182 127.875C287.277 127.601 287.373 127.329 287.472 127.057C287.45 127.284 287.432 127.513 287.417 127.742C287.402 127.971 287.39 128.2 287.381 128.431C287.372 128.661 287.366 128.892 287.363 129.123C287.361 129.355 287.361 129.587 287.364 129.819C287.364 129.946 287.365 130.072 287.368 130.199C287.37 130.326 287.374 130.452 287.378 130.579C287.382 130.705 287.387 130.832 287.394 130.959C287.4 131.085 287.407 131.212 287.416 131.339C287.51 132.76 287.727 134.169 288.063 135.551C288.403 136.949 288.847 138.319 289.39 139.647C289.944 141.002 290.583 142.317 291.302 143.586C292.034 144.877 292.834 146.126 293.699 147.326C294.63 148.622 295.614 149.884 296.651 151.112C297.688 152.34 298.765 153.534 299.88 154.695C300.997 155.854 302.147 156.978 303.329 158.066C304.511 159.154 305.714 160.204 306.935 161.216C308.187 162.256 309.463 163.256 310.765 164.217C312.067 165.177 313.39 166.096 314.734 166.972C316.078 167.848 317.442 168.682 318.826 169.473C320.21 170.263 321.61 171.009 323.025 171.709C323.09 171.742 323.149 171.787 323.198 171.841C323.247 171.894 323.286 171.956 323.314 172.022C323.342 172.089 323.359 172.159 323.363 172.231C323.367 172.303 323.358 172.376 323.336 172.445C323.328 172.474 323.318 172.503 323.305 172.531C323.293 172.558 323.278 172.583 323.26 172.607C323.243 172.63 323.223 172.652 323.201 172.671C323.18 172.69 323.156 172.707 323.131 172.721C323.104 172.733 323.076 172.742 323.048 172.748C323.019 172.753 322.989 172.754 322.96 172.752C322.931 172.75 322.901 172.745 322.873 172.735C322.843 172.726 322.815 172.714 322.788 172.698C322.613 172.612 322.438 172.525 322.263 172.438C322.089 172.351 321.914 172.263 321.74 172.175C321.566 172.087 321.392 171.998 321.218 171.908C321.045 171.818 320.871 171.727 320.698 171.635C319.256 170.872 317.832 170.063 316.428 169.209C315.024 168.354 313.641 167.455 312.279 166.512C310.917 165.568 309.58 164.583 308.268 163.555C306.956 162.527 305.671 161.458 304.414 160.348C303.2 159.279 302.002 158.175 300.832 157.032C299.662 155.89 298.521 154.711 297.423 153.495C296.325 152.278 295.271 151.025 294.272 149.734C293.273 148.442 292.333 147.115 291.462 145.749Z" fill="white"/>
<path d="M318.639 39.6092L317.606 39.7474L324.535 12.9734C325.045 11.1856 325.128 9.29716 324.777 7.46914C324.472 5.97548 323.718 4.61859 322.622 3.59101C321.474 2.56357 320.067 1.8913 318.564 1.65177C316.733 1.35983 314.864 1.446 313.065 1.90524V1.90524L265.976 12.9463C264.332 13.3569 262.759 14.0232 261.311 14.9223C259.735 15.8867 258.27 17.0303 256.943 18.3316C255.578 19.6585 254.352 21.1301 253.287 22.7219C252.246 24.2625 251.397 25.9319 250.761 27.6906V27.6906L201.492 167.214C200.672 169.508 200.14 171.9 199.908 174.333C199.692 176.492 199.794 178.673 200.21 180.801C200.557 182.65 201.282 184.402 202.336 185.941C203.304 187.341 204.666 188.399 206.239 188.972V188.972L255.992 206.606C258.202 207.381 260.574 207.527 262.858 207.027C265.3 206.48 267.596 205.391 269.587 203.837C271.823 202.107 273.746 199.986 275.268 197.569C276.953 194.915 278.212 191.998 278.997 188.931V188.931L312.353 60.0404L313.4 59.9541L318.639 39.6092Z" fill="#2F2E41"/>
<path d="M315.04 38.1268L314.007 38.265L320.935 11.4909C321.446 9.70314 321.529 7.81474 321.178 5.98672C320.873 4.49306 320.119 3.13617 319.023 2.10859C317.874 1.08115 316.468 0.408875 314.964 0.169344C313.133 -0.122589 311.264 -0.0364266 309.466 0.422817L262.376 11.4639C260.733 11.8745 259.16 12.5408 257.711 13.4398C256.136 14.4043 254.671 15.5479 253.344 16.8492C251.978 18.1761 250.753 19.6477 249.687 21.2394C248.646 22.7801 247.798 24.4495 247.162 26.2082V26.2082L197.892 165.731C197.073 168.026 196.541 170.418 196.308 172.85C196.093 175.01 196.195 177.19 196.61 179.319C196.957 181.168 197.682 182.92 198.737 184.459C199.704 185.858 201.067 186.917 202.639 187.49V187.49L252.392 205.124C254.603 205.899 256.975 206.044 259.259 205.545C261.7 204.997 263.997 203.909 265.988 202.355C268.224 200.625 270.147 198.503 271.668 196.087C273.354 193.432 274.613 190.516 275.398 187.449V187.449L308.754 58.558L309.8 58.4716L315.04 38.1268Z" fill="#3F3D56"/>
<path d="M309.049 3.91624L302.127 5.4775C302.203 6.09409 302.143 6.7203 301.953 7.31002C301.737 7.9998 301.424 8.65329 301.025 9.24963C300.124 10.6035 298.923 11.7163 297.521 12.4955C297.353 12.5875 297.186 12.6723 297.019 12.7501C296.852 12.828 296.685 12.8986 296.519 12.9621C296.353 13.0256 296.188 13.0817 296.024 13.1304C295.86 13.179 295.698 13.22 295.538 13.2534L268.474 18.8955C267.972 19.0156 267.449 19.0095 266.95 18.8777C266.548 18.7666 266.193 18.5207 265.942 18.1788C265.689 17.8117 265.546 17.3762 265.531 16.9262C265.51 16.3523 265.598 15.7796 265.791 15.2404C265.839 15.0949 265.893 14.9484 265.955 14.8009C266.016 14.6534 266.083 14.5059 266.156 14.3585C266.228 14.2102 266.306 14.0627 266.391 13.916C266.476 13.7692 266.566 13.6226 266.661 13.4761L261.537 14.6319C260.302 14.9299 259.12 15.4224 258.032 16.092C256.843 16.8132 255.738 17.671 254.737 18.649C253.705 19.6483 252.779 20.7579 251.976 21.9591C251.193 23.1198 250.556 24.3784 250.081 25.7045L200.904 166.44C200.292 168.17 199.899 169.973 199.735 171.805C199.584 173.423 199.673 175.055 200.001 176.645C200.273 178.019 200.83 179.317 201.634 180.45C202.37 181.477 203.397 182.245 204.573 182.649V182.649L254.692 199.413C256.346 199.959 258.111 200.041 259.806 199.649C261.61 199.224 263.305 198.405 264.776 197.248C266.422 195.966 267.838 194.398 268.963 192.616C270.208 190.659 271.142 188.51 271.73 186.25V186.25L317.523 12.2695C317.907 10.9414 317.978 9.53814 317.731 8.17606C317.515 7.05985 316.967 6.04066 316.162 5.26071C315.319 4.48092 314.277 3.96413 313.159 3.7706C311.794 3.5345 310.396 3.58403 309.049 3.91624V3.91624Z" fill="white"/>
<path d="M282.171 70.5704H182.471V35.7856H282.171V70.5704Z" fill="white"/>
<path d="M253.023 82.8474H155.31V131.614H253.023V82.8474Z" fill="white"/>
<path d="M171.184 106.265C175.088 106.265 178.252 103.007 178.252 98.9882C178.252 94.9692 175.088 91.7112 171.184 91.7112C167.281 91.7112 164.116 94.9692 164.116 98.9882C164.116 103.007 167.281 106.265 171.184 106.265Z" fill="#6C63FF"/>
<path d="M187.508 94.137C187.195 94.137 186.896 94.2647 186.675 94.4922C186.454 94.7196 186.33 95.0281 186.33 95.3498C186.33 95.6715 186.454 95.98 186.675 96.2074C186.896 96.4349 187.195 96.5626 187.508 96.5626H243.042C243.353 96.5618 243.652 96.4337 243.873 96.2063C244.093 95.979 244.217 95.6709 244.217 95.3498C244.217 95.0287 244.093 94.7206 243.873 94.4932C243.652 94.2659 243.353 94.1378 243.042 94.137H187.508Z" fill="#E6E6E6"/>
<path d="M187.508 101.414C187.353 101.414 187.199 101.444 187.056 101.505C186.913 101.566 186.783 101.655 186.673 101.767C186.563 101.879 186.476 102.013 186.416 102.16C186.357 102.307 186.326 102.465 186.326 102.624C186.325 102.784 186.356 102.942 186.415 103.089C186.474 103.236 186.56 103.37 186.669 103.483C186.779 103.596 186.909 103.686 187.052 103.747C187.195 103.808 187.348 103.84 187.503 103.84H211.404C211.559 103.84 211.712 103.808 211.855 103.747C211.998 103.686 212.128 103.597 212.237 103.485C212.346 103.372 212.433 103.238 212.492 103.091C212.552 102.944 212.582 102.786 212.582 102.627C212.582 102.468 212.552 102.31 212.492 102.163C212.433 102.016 212.346 101.882 212.237 101.769C212.128 101.657 211.998 101.567 211.855 101.506C211.712 101.445 211.559 101.414 211.404 101.414H187.508Z" fill="#E6E6E6"/>
<path d="M165.763 113.048C164.867 113.048 164.137 113.592 164.137 114.261C164.137 114.929 164.867 115.473 165.763 115.473H242.382C243.279 115.473 244.008 114.929 244.008 114.261C244.008 113.592 243.279 113.048 242.382 113.048H165.763Z" fill="#E6E6E6"/>
<path d="M165.763 120.325C164.867 120.325 164.137 120.869 164.137 121.538C164.137 122.206 164.867 122.75 165.763 122.75H224.746C225.642 122.75 226.371 122.206 226.371 121.538C226.371 120.869 225.642 120.325 224.746 120.325H165.763Z" fill="#E6E6E6"/>
<path d="M254.017 132.637H154.316V81.8242H254.017V132.637ZM156.304 130.591H252.029V83.8704H156.304V130.591Z" fill="#E6E6E6"/>
<path d="M199.339 60.2266C203.242 60.2266 206.407 56.9686 206.407 52.9496C206.407 48.9306 203.242 45.6726 199.339 45.6726C195.435 45.6726 192.271 48.9306 192.271 52.9496C192.271 56.9686 195.435 60.2266 199.339 60.2266Z" fill="#6C63FF"/>
<path d="M215.662 48.0984C215.35 48.0984 215.05 48.2262 214.829 48.4536C214.608 48.6811 214.484 48.9896 214.484 49.3112C214.484 49.6329 214.608 49.9414 214.829 50.1688C215.05 50.3963 215.35 50.5241 215.662 50.5241H271.196C271.508 50.5233 271.807 50.3951 272.027 50.1678C272.248 49.9404 272.371 49.6324 272.371 49.3112C272.371 48.9901 272.248 48.6821 272.027 48.4547C271.807 48.2273 271.508 48.0992 271.196 48.0984H215.662Z" fill="#E6E6E6"/>
<path d="M215.662 55.3753C215.507 55.3747 215.354 55.4056 215.211 55.4661C215.068 55.5267 214.937 55.6157 214.828 55.7281C214.718 55.8405 214.631 55.9741 214.571 56.1212C214.511 56.2684 214.481 56.4261 214.48 56.5855C214.48 56.7449 214.51 56.9028 214.569 57.0502C214.628 57.1976 214.715 57.3316 214.824 57.4444C214.933 57.5573 215.063 57.6469 215.206 57.7081C215.349 57.7692 215.502 57.8008 215.657 57.8009H259.355C259.668 57.8009 259.967 57.6731 260.188 57.4457C260.409 57.2182 260.533 56.9098 260.533 56.5881C260.533 56.2664 260.409 55.9579 260.188 55.7305C259.967 55.503 259.668 55.3753 259.355 55.3753H215.662Z" fill="#E6E6E6"/>
<path d="M282.171 70.5704H182.471V35.7856H282.171V70.5704ZM184.458 68.5243H280.184V37.8318H184.458V68.5243Z" fill="#E6E6E6"/>
<path d="M86.271 203.074H91.2967L93.6878 183.115L86.2699 183.115L86.271 203.074Z" fill="#FFB6B6"/>
<path d="M100.99 207.878L85.1942 207.879L85.1939 201.595L95.6312 201.595C97.0523 201.595 98.4152 202.176 99.4201 203.211C100.425 204.245 100.99 205.648 100.99 207.111L100.99 207.878V207.878Z" fill="#2F2E41"/>
<path d="M36.015 196.368L40.4192 198.86L51.8543 182.557L45.3542 178.878L36.015 196.368Z" fill="#FFB6B6"/>
<path d="M46.6647 207.879L32.8231 200.044L35.7632 194.538L44.9094 199.715C46.1547 200.42 47.077 201.605 47.4735 203.01C47.8699 204.415 47.708 205.925 47.0234 207.207L46.6647 207.879V207.879Z" fill="#2F2E41"/>
<path d="M86.0362 191.995C85.5883 191.995 85.1559 191.827 84.8196 191.522C84.4833 191.218 84.2661 190.798 84.2085 190.341L77.9231 140.473C77.8953 140.253 77.8006 140.047 77.6523 139.885C77.5041 139.723 77.31 139.614 77.0978 139.573C76.8856 139.531 76.666 139.56 76.4705 139.654C76.275 139.749 76.1136 139.905 76.0093 140.1L49.8142 189.031C49.5981 189.43 49.2499 189.737 48.8329 189.894C48.4159 190.052 47.9579 190.05 47.542 189.889L41.8323 187.649C41.6026 187.559 41.3928 187.423 41.215 187.248C41.0373 187.073 40.8953 186.864 40.7973 186.632C40.6993 186.4 40.6473 186.15 40.6444 185.897C40.6415 185.644 40.6878 185.393 40.7804 185.159L58.9263 139.264C58.9723 139.147 59.0035 139.025 59.019 138.9C61.4768 119.315 67.7302 109.355 69.5882 106.769C69.7239 106.579 69.8132 106.358 69.8486 106.125C69.8839 105.892 69.8643 105.653 69.7914 105.43L69.536 104.641C69.434 104.328 69.4131 103.992 69.4753 103.668C69.5376 103.344 69.6809 103.043 69.891 102.793C76.586 94.9421 88.255 99.2263 88.3721 99.2704L88.4306 99.2927L88.4672 99.3442C101.552 117.819 96.7139 177.826 95.6113 189.667C95.5701 190.112 95.3774 190.528 95.0673 190.841C94.7571 191.154 94.3495 191.344 93.9165 191.377L86.1794 191.99C86.1314 191.994 86.0836 191.995 86.0362 191.995Z" fill="#2F2E41"/>
<path d="M82.4886 53.4331C88.6659 53.4331 93.6736 48.2773 93.6736 41.9174C93.6736 35.5574 88.6659 30.4016 82.4886 30.4016C76.3114 30.4016 71.3037 35.5574 71.3037 41.9174C71.3037 48.2773 76.3114 53.4331 82.4886 53.4331Z" fill="#FFB8B8"/>
<path d="M65.1965 115.194L98.1089 118.279C95.2395 108.006 92.6105 97.7694 94.7534 87.5699C97.4746 78.4642 97.7275 73.4199 90.5491 69.1315L85.7023 57.9995L76.9304 57.6711L72.6532 56.4641C69.1975 62.1845 67.784 68.9651 68.6552 75.6417C70.5145 90.1604 70.0124 103.633 65.1965 115.194Z" fill="#6C63FF"/>
<path d="M70.1922 63.8069L66.8816 48.163C66.1909 44.4598 66.3642 40.6407 67.3873 37.02C67.4987 36.649 67.633 36.2856 67.7893 35.9322C68.7057 33.876 70.1465 32.1141 71.9583 30.8342C73.7701 29.5542 75.8852 28.804 78.0783 28.6635C85.602 28.1284 86.7065 28.9451 86.9786 29.3478C91.23 29.1711 94.5267 30.8622 96.0308 33.9917C96.1782 34.3023 96.2575 34.6424 96.2634 34.988C96.2692 35.3337 96.2014 35.6764 96.0647 35.9921C95.928 36.3078 95.7257 36.5889 95.472 36.8154C95.2184 37.0419 94.9197 37.2084 94.5968 37.3032C92.4956 37.9269 89.5423 38.6198 87.3274 38.416C82.8877 43.8987 84.7027 53.944 89.2069 59.9292L89.384 60.1645L84.9212 61.1061L79.7352 53.6704C79.6326 53.5233 79.484 53.4169 79.3143 53.369C79.1446 53.3211 78.9641 53.3347 78.803 53.4073C78.6418 53.48 78.5098 53.6075 78.429 53.7684C78.3481 53.9293 78.3234 54.1138 78.3588 54.2912L79.9334 62.1665L70.1922 63.8069Z" fill="#2F2E41"/>
<path d="M134.123 105.931L52.72 165.199L33.213 136.798L114.616 77.5305L134.123 105.931Z" fill="white"/>
<path d="M60.6914 146.726C63.8785 144.406 64.6351 139.865 62.3813 136.583C60.1275 133.302 55.7167 132.523 52.5296 134.843C49.3425 137.164 48.5859 141.705 50.8397 144.986C53.0935 148.268 57.5042 149.047 60.6914 146.726Z" fill="#6C63FF"/>
<path d="M67.2177 127.12C66.9626 127.306 66.7896 127.589 66.7368 127.906C66.684 128.223 66.7557 128.548 66.936 128.811C67.1164 129.074 67.3908 129.252 67.6987 129.306C68.0066 129.36 68.3229 129.287 68.578 129.101L113.92 96.0885C114.174 95.9025 114.347 95.6202 114.399 95.3036C114.451 94.987 114.379 94.662 114.199 94.3998C114.019 94.1376 113.746 93.9596 113.438 93.9049C113.131 93.8502 112.815 93.9233 112.56 94.108L67.2177 127.12Z" fill="#E6E6E6"/>
<path d="M71.2987 133.062C71.0436 133.247 70.8704 133.529 70.8171 133.846C70.7638 134.163 70.8348 134.488 71.0146 134.751C71.1943 135.014 71.468 135.192 71.7756 135.248C72.0832 135.303 72.3994 135.23 72.6549 135.045L72.659 135.042L108.333 109.069C108.588 108.883 108.761 108.601 108.814 108.284C108.867 107.967 108.795 107.641 108.615 107.378C108.525 107.248 108.412 107.138 108.281 107.053C108.15 106.968 108.005 106.91 107.852 106.883C107.544 106.829 107.228 106.903 106.973 107.088L71.2987 133.062Z" fill="#E6E6E6"/>
<path d="M134.123 105.931L52.72 165.199L33.213 136.798L114.616 77.5305L134.123 105.931ZM53.1952 162.347L131.353 105.442L114.141 80.3826L35.9831 137.287L53.1952 162.347Z" fill="#E6E6E6"/>
<path d="M319.999 95.4091C320.287 95.3976 320.575 95.4481 320.844 95.5573C321.099 95.6625 321.33 95.8208 321.523 96.0224C321.717 96.2252 321.868 96.4667 321.967 96.732C322.072 97.0133 322.12 97.3137 322.108 97.6148C322.096 97.9236 322.026 98.2272 321.902 98.5086C321.781 98.7847 321.612 99.0358 321.404 99.2498C321.197 99.4627 320.955 99.635 320.688 99.7582C320.417 99.8834 320.125 99.9522 319.828 99.9606C319.539 99.9695 319.251 99.9164 318.983 99.8045C318.73 99.6977 318.5 99.5381 318.309 99.3358C318.117 99.1324 317.967 98.8907 317.869 98.6257C317.766 98.3454 317.72 98.0465 317.733 97.7471C317.745 97.4398 317.814 97.1378 317.937 96.8577C318.058 96.5843 318.225 96.3355 318.431 96.1232C318.637 95.9107 318.878 95.7383 319.143 95.6144C319.412 95.4887 319.703 95.419 319.999 95.4091V95.4091Z" fill="#F2F2F2"/>
<path d="M91.1375 124.3L85.844 94.5061L86.2168 76.0809L74.2863 75.697L76.5232 96.4254L84.2374 125.169C83.5971 125.97 83.2047 126.951 83.111 127.984C83.0172 129.017 83.2263 130.055 83.7112 130.965C84.1962 131.874 84.9348 132.613 85.8317 133.086C86.7285 133.56 87.7426 133.745 88.7429 133.619C89.7433 133.493 90.684 133.062 91.4437 132.38C92.2034 131.698 92.7472 130.797 93.0049 129.794C93.2627 128.791 93.2225 127.732 92.8897 126.752C92.5568 125.773 91.9465 124.919 91.1376 124.3H91.1375Z" fill="#FFB8B8"/>
<path d="M73.5406 77.6164C77.8632 75.9213 82.6401 75.9213 86.9626 77.6164L86.2169 62.2621C86.2169 61.4555 86.0626 60.6569 85.7628 59.9117C85.4631 59.1666 85.0237 58.4895 84.4697 57.9192C83.9158 57.3489 83.2582 56.8965 82.5344 56.5879C81.8107 56.2792 81.035 56.1204 80.2516 56.1204V56.1204C79.4683 56.1204 78.6925 56.2792 77.9688 56.5879C77.2451 56.8965 76.5874 57.3489 76.0335 57.9192C75.4796 58.4895 75.0402 59.1666 74.7404 59.9117C74.4406 60.6569 74.2863 61.4555 74.2863 62.2621L73.5406 77.6164Z" fill="#6C63FF"/>
</g>
<defs>
<clipPath id="clip0_42:829">
<rect width="326" height="208" fill="white"/>
</clipPath>
</defs>
</svg>
