<svg id="Capa_1" data-name="Capa 1" xmlns="http://www.w3.org/2000/svg" viewBox="0 0 709 631"><defs><style>.cls-1{fill:#92bddf;}.cls-2{fill:#bfecff;}.cls-3{fill:#f7d755;}.cls-4{fill:#fff;}.cls-5{stroke:#000;stroke-miterlimit:10;}.cls-6{fill:none;stroke:#633319;stroke-linecap:round;stroke-linejoin:round;stroke-width:4px;}</style></defs><title>EliminarPerfil</title><path class="cls-1" d="M335,216s161-62,335,0c0,0,59.5-77.5,104.5-88.5,0,0,49,53,52,201,0,0,69,113,0,282,0,0-293,47-321,148,0,0-84-137-328-153,0,0-66-114,0-280,0,0,1-116,54-198C231.5,127.5,314.5,180.5,335,216Z" transform="translate(-148.17 -127.5)"/><path class="cls-2" d="M502.5,333.5s103-136,253-26c0,0,107,86,26,219,0,0-86,155-279,25,0,0-137,114-259,2,0,0-97-95-19-219S470.5,271.5,502.5,333.5Z" transform="translate(-148.17 -127.5)"/><path class="cls-3" d="M502.5,493.5l75,59s-48,101-67,114c0,0-63-62-82-115Z" transform="translate(-148.17 -127.5)"/><circle class="cls-4" cx="213.33" cy="346" r="102"/><circle class="cls-4" cx="493.33" cy="346" r="102"/><circle class="cls-5" cx="213.33" cy="346" r="57"/><circle cx="493.33" cy="346" r="57"/><ellipse class="cls-4" cx="234.33" cy="362.5" rx="7" ry="16.5"/><ellipse class="cls-4" cx="521.33" cy="362.5" rx="7" ry="16.5"/><path class="cls-6" d="M605,378.24C521.48,375,502.5,333.5,502.5,333.5" transform="translate(-148.17 -127.5)"/><path class="cls-6" d="M400.5,378.24C484,375,503,333.5,503,333.5" transform="translate(-148.17 -127.5)"/><path class="cls-1" d="M266,438l41.29-8.07a186.94,186.94,0,0,1,108.42,0L458.86,443c1.07-1.92-25.3-74.17-97.36-71.5C288.24,374.22,264.45,436.59,266,438Z" transform="translate(-148.17 -127.5)"/><path class="cls-1" d="M544.14,443l25.17-7.63a249,249,0,0,1,144.38,0L738.86,443s-25.21-75.21-97.36-71.5C565.4,375.41,540.74,441.26,544.14,443Z" transform="translate(-148.17 -127.5)"/></svg>