<svg width="65" height="111" viewBox="0 0 65 111" fill="none" xmlns="http://www.w3.org/2000/svg">
<path d="M62.3612 109C61.5641 108.502 44.7192 97.6265 44.3599 78.291C44.203 69.0587 47.8033 56.6835 52.9522 56.1203C58.101 55.5572 64.3215 66.5967 62.7533 72.6076C60.5448 81.2179 40.7074 86.3579 34.121 73.1772C29.8804 64.6652 33.2259 52.6828 33.7159 51" stroke="black" stroke-width="4" stroke-miterlimit="10" stroke-dasharray="12 12"/>
<path d="M56 29.4748C54.9497 29.3825 5.22153 6.06412 5.00217 4.07313C4.78281 2.08213 21.2747 41.3483 20.0117 48.5673C20.0117 48.5673 33.4657 41.1769 34.3498 42.5679L31.7508 51L42.3864 36.0148L56 29.4748Z" fill="white" stroke="black" stroke-width="4" stroke-miterlimit="10"/>
<path d="M43 35.5113L8.29155 5.95306L6 5L8.09725 7.85921L34.8992 42" stroke="black" stroke-width="4" stroke-miterlimit="10"/>
</svg>
