<svg width="180" height="224" viewBox="0 0 180 224" fill="none" xmlns="http://www.w3.org/2000/svg">
<path d="M-3.66952 185.816C-1.72887 185.467 39.4824 177.465 51.1307 143.564C56.6617 127.368 56.1401 103.124 45.7347 98.7059C35.3294 94.2882 16.1518 109.644 16.0292 121.299C15.7748 137.97 54.1898 160.236 75.3364 141.343C88.9661 129.133 88.7537 105.753 88.6818 102.456" stroke="black" stroke-width="4" stroke-miterlimit="10" stroke-dasharray="12 12"/>
<path d="M54.4075 49.6332C56.6467 50.1686 173.354 42.0616 174.933 38.6921C176.512 35.3226 120.032 93.6865 118.592 107.272C118.592 107.272 94.7397 85.2779 92.1143 87.1462L92.7736 103.762L79.0718 70.2321L54.4075 49.6332Z" fill="white" stroke="black" stroke-width="4" stroke-miterlimit="10"/>
<path d="M78.078 68.9353L167.023 39.8244L172.332 39.6653L166.353 43.3191L91.2907 85.7782" stroke="black" stroke-width="4" stroke-miterlimit="10"/>
</svg>
