<svg width="56" height="64" viewBox="0 0 56 64" fill="none" xmlns="http://www.w3.org/2000/svg">
<path d="M54.1186 1.13326C53.7051 0.806968 53.2255 0.6111 52.727 0.564927C52.2284 0.518755 51.7281 0.623869 51.2752 0.869928L2.40023 27.5366C1.90063 27.8095 1.47942 28.2436 1.18695 28.7867C0.894481 29.3299 0.743141 29.9592 0.751026 30.5995C0.75891 31.2398 0.925686 31.8639 1.23141 32.3971C1.53713 32.9304 1.96886 33.3503 2.47498 33.6066L18 41.4833V63.8899L34.7785 49.9966L48.475 56.9433C48.8978 57.158 49.359 57.2515 49.8197 57.2159C50.2803 57.1803 50.7267 57.0166 51.1212 56.7387C51.5157 56.4608 51.8467 56.0768 52.0862 55.6192C52.3257 55.1617 52.4666 54.644 52.4971 54.1099L55.3721 4.10993C55.4036 3.53035 55.3046 2.95124 55.0849 2.42939C54.8651 1.90755 54.5321 1.4609 54.1186 1.13326ZM47.0288 48.9333L31.8805 41.2466L41 20.5566L19.0091 34.7233L10.5796 30.4466L49.3087 9.31326L47.0288 48.9333Z" fill="white"/>
</svg>
