<svg width="368" height="343" viewBox="0 0 368 343" fill="none" xmlns="http://www.w3.org/2000/svg">
<path d="M27.2026 94.4677C27.2026 94.4677 27.4609 94.17 27.9434 93.6823C32.1441 89.4427 37.7 86.5786 43.7863 85.5152C49.8725 84.4519 56.1644 85.246 61.7278 87.7797C62.7473 88.242 63.8551 88.7107 64.9764 89.1477C68.3878 90.4455 72.141 90.7503 75.7418 90.0217C81.3827 88.9133 91.8014 87.957 96.8986 94.455L27.2026 94.4677Z" fill="#E9F0F5"/>
<path d="M292.931 159.068C292.931 159.068 293.101 158.871 293.42 158.542C296.214 155.724 299.908 153.821 303.954 153.115C308.001 152.409 312.184 152.937 315.882 154.622C316.562 154.926 317.296 155.255 318.043 155.527C320.312 156.388 322.806 156.592 325.2 156.11C328.958 155.375 335.884 154.742 339.275 159.068H292.931Z" fill="#E9F0F5"/>
<path d="M149.971 126.096C149.971 126.096 150.141 125.9 150.46 125.571C153.257 122.755 156.951 120.853 160.998 120.145C165.044 119.438 169.228 119.964 172.929 121.644C173.608 121.954 174.342 122.277 175.09 122.556C177.356 123.417 179.848 123.62 182.24 123.139C185.998 122.398 192.924 121.764 196.315 126.096H149.971Z" fill="#E9F0F5"/>
<path d="M165.052 75.1383C165.052 75.1383 165.351 74.7963 165.915 74.22C170.791 69.3028 177.238 65.9813 184.299 64.748C191.361 63.5148 198.66 64.4355 205.116 67.3737C206.299 67.912 207.583 68.4567 208.888 68.9633C212.846 70.4715 217.202 70.8249 221.38 69.9767C227.931 68.71 240.015 67.5827 245.935 75.1383H165.052Z" fill="#EBF0F5"/>
<path d="M246.818 114.855C246.818 114.855 247.212 114.399 247.96 113.645C254.428 107.122 262.98 102.715 272.348 101.078C281.716 99.441 291.4 100.661 299.965 104.557C301.542 105.272 303.241 106.001 304.967 106.666C310.217 108.667 315.995 109.135 321.537 108.008C330.229 106.305 346.268 104.842 354.118 114.855H246.818Z" fill="#EBF0F5"/>
<path d="M276.362 265.461C276.362 265.461 276.606 265.183 277.041 264.714C281.015 260.708 286.268 258.002 292.022 256.997C297.775 255.992 303.723 256.742 308.984 259.134C309.949 259.578 311.023 260.021 312.056 260.433C315.286 261.664 318.841 261.951 322.25 261.256C327.585 260.211 337.433 259.305 342.252 265.461H276.362Z" fill="#EBF0F5"/>
<path d="M263.809 290.218C251.114 281.909 229.291 273.568 203.567 288.565C197.585 288.368 191.689 287.18 186.155 285.057C182.981 283.828 179.861 282.523 176.973 281.187C144.684 266.557 105.802 273.232 81.512 297.863C80.1527 299.256 79.4187 300.092 79.4187 300.092H276.362C273.078 295.919 268.775 292.534 263.809 290.218Z" fill="#EBF0F5"/>
<path d="M233.083 222.122V222.059C233.072 213.61 236.615 205.493 242.951 199.449L243.563 198.879L244.188 198.328L244.827 197.79C247.243 195.802 249.944 194.137 252.853 192.843H252.908L253.642 192.527L253.771 192.476C253.995 192.387 254.212 192.292 254.45 192.21L254.634 192.14L255.252 191.906L255.483 191.824L256.068 191.627L256.326 191.539L256.89 191.361L257.176 191.273L257.719 191.114L258.032 191.026L258.562 190.886L258.888 190.804L259.412 190.677L259.758 190.601L260.268 190.494L260.628 190.418L261.138 190.323L261.505 190.259L262.015 190.177L262.395 190.114L262.898 190.05L263.286 190L263.795 189.943L264.196 189.867L264.713 189.822L265.1 189.791H267.819C273.789 189.794 279.658 191.229 284.861 193.956C290.065 196.683 294.428 200.612 297.532 205.364C301.924 204.197 306.622 204.563 310.745 206.394C314.867 208.225 318.132 211.394 319.926 215.308C321.087 215.057 322.291 215.038 323.46 215.254C324.629 215.47 325.735 215.914 326.706 216.559C327.676 217.203 328.489 218.032 329.089 218.992C329.689 219.951 330.064 221.018 330.188 222.122H233.083Z" fill="#D6E1EB"/>
<path d="M138.465 209.848C138.329 209.722 137.846 194.959 128.848 187.137L128.243 186.567C128.039 186.377 127.829 186.193 127.618 186.01C127.407 185.826 127.19 185.649 126.972 185.471C124.552 183.483 121.849 181.817 118.939 180.519H118.891L118.157 180.202L118.022 180.151C117.804 180.056 117.587 179.968 117.342 179.885L117.152 179.809L116.54 179.581L116.309 179.499L115.724 179.296L115.459 179.214L114.902 179.03L114.61 178.948L114.066 178.79L113.753 178.701L113.223 178.562L112.897 178.479L112.374 178.353L112.034 178.277L111.517 178.163L111.157 178.093L110.648 177.998L110.281 177.928L109.778 177.846L109.397 177.789L108.887 177.719L108.507 177.669L107.997 177.612L107.61 177.574L107.086 177.529H106.706L106.162 177.491H103.967C97.9944 177.451 92.1128 178.854 86.8966 181.565C81.6803 184.276 77.3077 188.201 74.2058 192.957C69.8049 191.81 65.1057 192.2 60.9918 194.054C56.8778 195.908 53.6326 199.1 51.8664 203.027C50.7053 202.776 49.5002 202.758 48.3309 202.974C47.1616 203.189 46.0549 203.634 45.0839 204.278C44.113 204.923 43.3001 205.752 42.699 206.711C42.0978 207.67 41.7223 208.737 41.5972 209.842H129.208L138.465 209.848Z" fill="#D6E1EB"/>
<path d="M199.468 120.263C206.224 124.855 211.586 114.291 212.082 109.389C212.517 105.108 211.042 103.436 209.364 99.718C206.36 92.9603 211.831 90.8513 211.233 85.905L167.295 93.372" fill="#143059"/>
<path d="M164.386 117.432C164.704 115.025 165.977 112.815 167.955 111.238C169.933 109.661 172.473 108.83 175.074 108.91C177.676 108.989 180.152 109.973 182.015 111.667C183.878 113.361 184.993 115.644 185.142 118.066L182.994 146.61C182.927 147.521 183.232 148.421 183.847 149.131C184.462 149.842 185.342 150.31 186.311 150.442L196.063 150.923L196.356 154.539C196.519 156.524 197.492 158.376 199.074 159.714C198.469 160.98 198.395 161.753 200.542 161.753H175.539C173.429 161.752 171.397 161.008 169.851 159.671C168.304 158.333 167.357 156.5 167.2 154.539L164.338 119.37C164.29 118.724 164.306 118.076 164.386 117.432Z" fill="#988BB3"/>
<path d="M179.202 108.357C180.565 108.26 181.936 108.414 183.235 108.812C184.534 109.209 185.737 109.841 186.774 110.671C187.811 111.502 188.662 112.515 189.279 113.652C189.896 114.789 190.266 116.029 190.368 117.299C190.368 117.363 190.368 117.42 190.368 117.483L192.584 139.922H170.965L169.605 118.788C169.578 118.366 169.578 117.943 169.605 117.521C169.748 115.171 170.798 112.949 172.562 111.264C174.326 109.58 176.685 108.547 179.202 108.357Z" fill="#FBA919"/>
<path d="M255.028 231.502C253.828 229.193 252.416 226.985 250.808 224.903C249.618 223.402 248.463 222.015 247.328 220.742L257.998 210.798C257.706 210.52 262.674 214.079 266.194 214.123C272.773 214.212 279.739 210.602 283.539 208.271C284.234 207.841 285.083 207.681 285.904 207.828C286.019 207.847 286.132 207.872 286.243 207.904L286.08 207.866C286.522 207.966 286.936 208.15 287.296 208.407C287.657 208.665 287.956 208.989 288.174 209.361C288.465 209.883 288.569 210.48 288.468 211.062C288.368 211.643 288.069 212.18 287.616 212.591L264.563 234.08C263.634 234.957 262.386 235.479 261.065 235.544C259.745 235.61 258.445 235.214 257.42 234.434C256.416 233.619 255.602 232.621 255.028 231.502Z" fill="#BBB1CC"/>
<path d="M287.127 208.297C287.379 208.442 287.607 208.619 287.807 208.822C287.958 208.99 288.092 209.17 288.208 209.361C288.435 209.749 288.55 210.185 288.541 210.627C288.541 210.772 288.527 210.916 288.5 211.058C288.386 211.638 288.091 212.174 287.65 212.597L264.597 234.086C263.811 234.819 262.8 235.305 261.703 235.476C260.607 235.648 259.48 235.496 258.481 235.042L287.127 208.297Z" fill="#FCBB47"/>
<path d="M254.369 228.57C255.463 228.972 256.66 229.066 257.811 228.841C258.962 228.616 260.017 228.081 260.846 227.303L261.471 226.72C262.146 226.09 262.65 225.319 262.941 224.471C263.232 223.623 263.301 222.722 263.143 221.844C262.985 220.965 263.055 220.064 263.347 219.215C263.639 218.367 264.145 217.596 264.822 216.967L267.975 214.028C273.997 213.547 280.086 210.368 283.545 208.246C284.241 207.815 285.09 207.656 285.911 207.803C286.025 207.821 286.139 207.847 286.25 207.879L286.087 207.841C286.457 207.93 286.808 208.076 287.127 208.271L258.426 235.011C259.045 235.302 258.29 235.08 257.427 234.409H257.4C256.456 233.638 255.681 232.705 255.117 231.66C254.437 230.44 253.721 229.237 252.969 228.05L254.369 228.57Z" fill="#143059"/>
<path d="M203.852 81.0917C212.429 79.0207 218.328 76.405 221.522 71.8197C221.631 76.1006 220.306 80.3068 217.73 83.853C217.204 84.5677 216.918 85.412 216.908 86.2787V90.598C216.906 90.8847 216.783 91.1592 216.565 91.362C216.348 91.5647 216.053 91.6793 215.746 91.681H215.644L213.36 91.1743C212.993 91.13 213.034 91.453 213.197 91.757L213.455 92.9223C213.498 93.0013 213.506 93.0929 213.476 93.1772C213.447 93.2614 213.383 93.3314 213.299 93.372C213.258 93.3913 213.215 93.4041 213.17 93.41L210.506 92.9033C210.407 92.887 210.305 92.9024 210.217 92.9472C210.129 92.992 210.06 93.0634 210.021 93.1496C209.982 93.2359 209.976 93.3319 210.004 93.4218C210.031 93.5117 210.091 93.5902 210.173 93.6443L211.532 94.702C211.57 94.7278 211.603 94.7604 211.628 94.7979C211.652 94.8354 211.669 94.8771 211.677 94.9206C211.684 94.9641 211.683 95.0086 211.672 95.0515C211.661 95.0944 211.641 95.1349 211.613 95.1707C211.557 95.2409 211.475 95.2885 211.382 95.3037L210.703 95.652C210.497 95.6886 210.307 95.7817 210.158 95.9193C210.009 96.057 209.908 96.233 209.867 96.4247V97.001C209.922 97.9298 209.58 98.8412 208.915 99.5348C208.249 100.228 207.316 100.647 206.319 100.7H206.074C204.226 100.763 202.398 100.323 200.814 99.433L196.118 96.659C195.303 96.184 194.361 95.9316 193.399 95.9307C192.482 95.9415 191.585 96.1851 190.805 96.6353C190.025 97.0854 189.391 97.7252 188.972 98.4858C188.552 99.2464 188.363 100.099 188.425 100.952C188.487 101.805 188.797 102.627 189.322 103.328C186.569 101.694 182.376 101.099 180.446 98.6097C184.469 90.237 191.85 83.9923 203.852 81.0917Z" fill="#BBB1CC"/>
<path d="M196.308 100.263C198.44 100.263 200.168 97.1833 200.168 93.3847C200.168 89.586 198.44 86.5067 196.308 86.5067C194.176 86.5067 192.448 89.586 192.448 93.3847C192.448 97.1833 194.176 100.263 196.308 100.263Z" fill="#539E65"/>
<path d="M118.436 165.008L120.081 161.17L122.235 156.161H167.77C167.991 157.553 168.741 158.825 169.883 159.744C171.026 160.664 172.486 161.17 173.996 161.17H194.874C195.354 161.17 195.83 161.189 196.301 161.227C199.026 160.937 201.785 161.224 204.374 162.066C206.963 162.908 209.315 164.284 211.253 166.091L258.759 210.342L247.43 220.9C239.05 210.925 230.018 207.663 230.018 207.663C216.459 202.901 210.132 195.63 207.271 190.76C206.873 190.079 206.271 189.52 205.538 189.153C204.806 188.785 203.974 188.624 203.145 188.689H188.757L135.162 188.448H134.387C121.875 187.967 113.774 175.845 118.436 165.008Z" fill="#7FB78C"/>
<path d="M241.802 150.6L240.443 150.347L251.229 136.033C251.687 135.423 252.374 134.995 253.155 134.835C253.936 134.676 254.753 134.796 255.443 135.172L264.543 140.125C265.039 140.391 265.402 140.83 265.552 141.345C265.702 141.86 265.628 142.409 265.345 142.873C265.311 142.936 265.27 142.995 265.223 143.051L253.716 157.782L245.459 152.785C243.746 152.069 242.047 152.31 241.802 150.6Z" fill="#43597A"/>
<path d="M263.857 142.126C263.929 142.027 263.958 141.906 263.936 141.788C263.915 141.669 263.845 141.564 263.741 141.493H263.7L254.6 136.546C254.271 136.369 253.883 136.314 253.512 136.39C253.141 136.466 252.814 136.669 252.595 136.958L241.136 152.126L242.87 152.867C243.039 154.058 243.332 152.747 244.507 153.241L251.786 157.503L263.857 142.126Z" fill="#82A6C2"/>
<path d="M247.423 145.559L253.54 137.579L262.103 142.481L252.541 155.477L244.365 149.777L247.423 145.559Z" fill="white"/>
<path d="M132.98 142.842C135.081 141.485 136.8 139.675 137.989 137.566C139.607 134.627 139.532 132.075 139.892 127.287L139.81 124.918C142.101 126.084 144.908 129.067 148.075 129.06C161.491 129.06 173.078 122.923 178.244 111.15C180.391 106.229 167.512 96.184 169.993 92.0863C175.342 96.07 200.454 108.61 202.615 110.067C201.137 109.11 199.419 108.525 197.628 108.37C195.836 108.215 194.032 108.494 192.39 109.18C190.749 109.867 189.325 110.937 188.259 112.288C187.193 113.638 186.519 115.223 186.304 116.888C186.229 117.519 186.216 118.154 186.263 118.788L187.656 135.951L167.757 156.161H123.513C122.899 156.16 122.3 155.981 121.8 155.649C121.299 155.318 120.922 154.849 120.72 154.309C120.517 153.768 120.5 153.183 120.671 152.633C120.841 152.083 121.191 151.596 121.671 151.24L132.98 142.842Z" fill="#FCBB47"/>
<path d="M195.866 108.357C198.621 108.165 201.345 109 203.439 110.68C205.533 112.359 206.826 114.745 207.033 117.312C207.033 117.369 207.033 117.426 207.033 117.483L209.248 139.922H187.622L186.263 118.788C186.229 118.366 186.229 117.943 186.263 117.521C186.403 115.169 187.454 112.945 189.219 111.26C190.985 109.574 193.347 108.543 195.866 108.357Z" fill="#FCCC75"/>
<path d="M187.622 139.922H205.673L204.899 150.15C204.83 151.062 205.134 151.964 205.749 152.676C206.364 153.388 207.245 153.856 208.215 153.988L230.038 156.686C230.379 156.724 230.723 156.724 231.064 156.686C231.667 156.616 232.218 156.335 232.607 155.901L236.685 151.468C237.39 150.693 238.368 150.179 239.444 150.017C240.673 149.835 241.859 149.458 242.951 148.903C243.863 148.378 244.711 147.762 245.479 147.066C245.66 146.899 245.904 146.805 246.159 146.805C246.414 146.805 246.658 146.899 246.839 147.066C247.224 147.419 247.492 147.867 247.613 148.357C247.733 148.848 247.7 149.36 247.518 149.834C247.285 150.532 246.806 151.137 246.159 151.55L244.732 152.481C246.934 155.825 254.586 156.661 254.586 156.661L253.716 158.561C253.522 158.982 253.206 159.344 252.804 159.608C252.402 159.871 251.93 160.026 251.44 160.056L250.529 160.113L249.849 162.013C249.671 162.497 249.337 162.919 248.891 163.219C248.446 163.52 247.912 163.685 247.362 163.691H246.274L245.384 165.129C245.145 165.524 244.795 165.851 244.371 166.074C243.947 166.298 243.465 166.409 242.978 166.395L235.346 165.496C234.697 165.42 234.043 165.382 233.389 165.382H197.443C195.338 165.382 193.31 164.643 191.763 163.312C190.217 161.981 189.265 160.156 189.097 158.2L187.622 139.922Z" fill="#BBB1CC"/>
<path d="M190.688 209.867C188.649 204.604 186.44 199.968 186.922 197.201C187.296 195.066 185.624 194.142 183.463 193.356C183.463 193.356 168.233 188.575 167.961 188.29L192.115 183.464C194.503 182.61 197.078 182.31 199.618 182.591C202.158 182.871 204.586 183.723 206.694 185.074C208.802 186.424 210.526 188.232 211.717 190.341C212.907 192.45 213.53 194.798 213.53 197.182V259.451H197.137" fill="#539E65"/>
<path d="M147.3 130.333C173.235 131.948 172.446 115.133 183.463 98.445C191.721 85.943 217.445 84.5117 221.522 73.6943C221.522 73.6943 221.108 76.272 220.734 77.7603C236.896 69.432 211.042 52.161 200.073 53.1933C185.414 54.5677 177.251 70.5087 166.853 79.293C157.148 87.482 148.945 90.2053 143.576 102.726C141.408 107.818 133.028 129.428 147.3 130.333Z" fill="#143059"/>
<path d="M211.185 259.476C211.374 262.381 212.702 265.12 214.916 267.171L230.072 284.556C230.434 284.968 230.705 285.443 230.869 285.952C231.034 286.462 231.089 286.996 231.031 287.526C230.974 288.055 230.805 288.569 230.534 289.038C230.264 289.506 229.896 289.92 229.454 290.256C229.225 290.433 228.977 290.586 228.713 290.712C227.014 291.517 224.533 291.935 220.965 291.2C219.403 290.877 217.967 290.155 216.819 289.116L209.146 282.105C207.893 280.964 206.209 280.325 204.457 280.326C203.033 280.338 201.627 280.03 200.358 279.426C199.089 278.823 197.996 277.943 197.171 276.861C196.362 275.86 195.962 274.623 196.043 273.372C196.103 272.893 196.248 272.426 196.471 271.991C197.287 270.294 200.325 263.574 198.931 259.476" fill="#BBB1CC"/>
<path d="M190.749 209.848V209.779C190.762 200.192 186.741 190.983 179.548 184.129C179.324 183.907 179.1 183.692 178.869 183.495L178.189 182.862C177.951 182.653 177.707 182.45 177.462 182.229C174.699 179.95 171.606 178.044 168.273 176.567H168.219L167.39 176.212L167.234 176.149L166.486 175.845L166.269 175.762L165.589 175.503L165.324 175.414C165.106 175.332 164.882 175.256 164.644 175.186L164.345 175.085L163.706 174.882L163.38 174.781L162.768 174.603L162.408 174.508L161.81 174.344L161.436 174.255L160.845 174.109L160.451 174.021L159.873 173.9L159.465 173.818L158.888 173.704L158.466 173.634L157.895 173.539L157.467 173.47L156.89 173.394L156.455 173.337L155.87 173.273L155.435 173.223L154.844 173.172L154.409 173.14L153.797 173.102H151.296C145.793 173.091 140.348 174.156 135.314 176.229C130.28 178.301 125.769 181.336 122.072 185.136C120.379 186.873 118.865 188.756 117.553 190.76C112.562 189.462 107.235 189.903 102.569 192.001C97.9026 194.1 94.2171 197.711 92.2025 202.16C90.8845 201.877 89.5171 201.857 88.1905 202.103C86.8639 202.348 85.6082 202.853 84.5062 203.584C83.4042 204.314 82.4809 205.254 81.7973 206.342C81.1136 207.429 80.6851 208.64 80.54 209.893L190.749 209.848Z" fill="#D6E1EB"/>
<path d="M196.281 272.415C196.478 272.966 196.758 273.488 197.11 273.967C197.931 275.07 199.029 275.969 200.308 276.586C201.588 277.203 203.01 277.52 204.45 277.507C206.203 277.507 207.886 278.146 209.14 279.287L216.84 286.292C217.983 287.33 219.414 288.052 220.972 288.375C224.526 289.104 227 288.698 228.699 287.9C229.667 287.45 230.411 286.67 230.779 285.722C231.152 286.647 231.146 287.668 230.763 288.59C230.379 289.512 229.644 290.27 228.699 290.719C227 291.517 224.526 291.922 220.972 291.194C219.414 290.87 217.983 290.149 216.84 289.11L209.146 282.105C207.893 280.964 206.21 280.325 204.457 280.326C203.016 280.338 201.595 280.022 200.315 279.405C199.036 278.788 197.938 277.888 197.117 276.785C196.342 275.799 195.962 274.592 196.043 273.372C196.078 273.045 196.158 272.723 196.281 272.415Z" fill="#FCBB47"/>
<path d="M230.779 285.722C230.412 286.67 229.667 287.45 228.699 287.9C227 288.698 224.526 289.104 220.972 288.375C219.414 288.052 217.983 287.33 216.84 286.292L209.146 279.287C207.893 278.146 206.21 277.507 204.457 277.507C203.016 277.52 201.595 277.203 200.315 276.586C199.036 275.969 197.938 275.07 197.117 273.967C196.764 273.488 196.485 272.966 196.288 272.415C196.342 272.276 196.403 272.13 196.471 271.991C196.723 271.465 197.151 270.458 197.667 269.198L199.231 270.661C199.646 271.049 200.14 271.356 200.684 271.566C201.227 271.776 201.809 271.884 202.398 271.884C202.986 271.884 203.568 271.776 204.112 271.566C204.655 271.356 205.149 271.049 205.565 270.661C205.707 270.529 205.839 270.387 205.959 270.237L206.387 269.711C206.775 269.23 207.278 268.84 207.856 268.572C208.434 268.304 209.072 268.165 209.717 268.166H215.766L230.038 284.569C230.398 284.982 230.666 285.458 230.827 285.969C230.829 285.884 230.812 285.8 230.779 285.722Z" fill="#143059"/>
<path d="M213.53 198.303V197.194C213.541 196.756 213.519 196.318 213.462 195.883C215.663 196.448 217.605 197.67 218.988 199.362C220.372 201.054 221.121 203.123 221.121 205.25V209.652H213.53V198.303Z" fill="#D6E1EB"/>
<path d="M252.541 140.657L259.412 144.305" stroke="black" stroke-miterlimit="10"/>
<path d="M250.971 142.481L257.699 146.274" stroke="black" stroke-miterlimit="10"/>
<path d="M249.136 144.381L255.98 148.523" stroke="black" stroke-miterlimit="10"/>
<path d="M248.157 146.274L254.335 150.005" stroke="black" stroke-miterlimit="10"/>
</svg>
