<svg width="16" height="15" viewBox="0 0 16 15" fill="none" xmlns="http://www.w3.org/2000/svg">
<path d="M7.99996 10.1667C8.37329 10.7267 8.87329 11.1867 9.46663 11.5001L7.99996 12.9667L6.53329 11.5001C7.12663 11.1867 7.63329 10.7267 7.99996 10.1667ZM11.3333 6.96675C10.9797 6.96675 10.6405 7.10722 10.3905 7.35727C10.1404 7.60732 9.99996 7.94646 9.99996 8.30008C9.99996 8.6537 10.1404 8.99284 10.3905 9.24289C10.6405 9.49294 10.9797 9.63341 11.3333 9.63341C11.6869 9.63341 12.0261 9.49294 12.2761 9.24289C12.5261 8.99284 12.6666 8.6537 12.6666 8.30008C12.6666 7.94646 12.5261 7.60732 12.2761 7.35727C12.0261 7.10722 11.6869 6.96675 11.3333 6.96675ZM4.66663 6.96675C4.313 6.96675 3.97387 7.10722 3.72382 7.35727C3.47377 7.60732 3.33329 7.94646 3.33329 8.30008C3.33329 8.6537 3.47377 8.99284 3.72382 9.24289C3.97387 9.49294 4.313 9.63341 4.66663 9.63341C5.02025 9.63341 5.35939 9.49294 5.60943 9.24289C5.85948 8.99284 5.99996 8.6537 5.99996 8.30008C5.99996 7.94646 5.85948 7.60732 5.60943 7.35727C5.35939 7.10722 5.02025 6.96675 4.66663 6.96675ZM11.3333 5.30008C12.0405 5.30008 12.7188 5.58103 13.2189 6.08113C13.719 6.58123 14 7.2595 14 7.96675C14 8.67399 13.719 9.35227 13.2189 9.85237C12.7188 10.3525 12.0405 10.6334 11.3333 10.6334C10.626 10.6334 9.94777 10.3525 9.44767 9.85237C8.94758 9.35227 8.66663 8.67399 8.66663 7.96675C8.66663 7.2595 8.94758 6.58123 9.44767 6.08113C9.94777 5.58103 10.626 5.30008 11.3333 5.30008ZM4.66663 5.30008C5.37387 5.30008 6.05215 5.58103 6.55224 6.08113C7.05234 6.58123 7.33329 7.2595 7.33329 7.96675C7.33329 8.67399 7.05234 9.35227 6.55224 9.85237C6.05215 10.3525 5.37387 10.6334 4.66663 10.6334C3.95938 10.6334 3.2811 10.3525 2.78101 9.85237C2.28091 9.35227 1.99996 8.67399 1.99996 7.96675C1.99996 7.2595 2.28091 6.58123 2.78101 6.08113C3.2811 5.58103 3.95938 5.30008 4.66663 5.30008ZM1.49329 0.166748C2.66663 2.63341 1.81996 4.47341 1.03329 6.30008C0.793293 6.83341 0.666626 7.38675 0.666626 7.96675C0.666626 9.02761 1.08805 10.045 1.8382 10.7952C2.58834 11.5453 3.60576 11.9667 4.66663 11.9667C4.80663 11.9601 4.94663 11.9534 5.08663 11.9334L7.05996 13.9067L7.99996 14.8334L8.93996 13.9067L10.9133 11.9334C11.0533 11.9534 11.1933 11.9601 11.3333 11.9667C12.3942 11.9667 13.4116 11.5453 14.1617 10.7952C14.9119 10.045 15.3333 9.02761 15.3333 7.96675C15.3333 7.38675 15.2066 6.83341 14.9666 6.30008C14.18 4.47341 13.3333 2.63341 14.5066 0.166748C12.7466 1.54008 10.24 2.62675 7.99996 2.63341C5.75996 2.62675 3.25329 1.54008 1.49329 0.166748Z" fill="black"/>
</svg>
