<svg width="14" height="15" viewBox="0 0 14 15" fill="none" xmlns="http://www.w3.org/2000/svg">
<g clip-path="url(#clip0)">
<path d="M12.7116 1.76196H1.28836C0.577965 1.76196 0 2.3399 0 3.05119C0 3.76158 0.577965 4.33955 1.28836 4.33955H12.7116C13.422 4.33955 14 3.76158 14 3.05119C14 2.3399 13.422 1.76196 12.7116 1.76196Z" fill="black"/>
<path d="M12.7116 5.71582H1.28836C0.577965 5.71582 0 6.29376 0 7.00505C0 7.71544 0.577965 8.2934 1.28836 8.2934H12.7116C13.422 8.2934 14 7.71544 14 7.00505C14 6.29376 13.422 5.71582 12.7116 5.71582Z" fill="black"/>
<path d="M12.7116 9.66968H1.28836C0.577965 9.66968 0 10.2476 0 10.9589C0 11.6693 0.577965 12.2473 1.28836 12.2473H12.7116C13.422 12.2473 14 11.6693 14 10.9589C14 10.2476 13.422 9.66968 12.7116 9.66968Z" fill="black"/>
</g>
<defs>
<clipPath id="clip0">
<rect width="14" height="14" fill="white" transform="translate(0 0.00463867)"/>
</clipPath>
</defs>
</svg>
