<svg width="15" height="14" viewBox="0 0 15 14" fill="none" xmlns="http://www.w3.org/2000/svg">
<path d="M3.56897 2.25C3.2706 2.25 2.98445 2.36853 2.77347 2.5795C2.5625 2.79048 2.44397 3.07663 2.44397 3.375V8.625C2.44397 8.92337 2.5625 9.20952 2.77347 9.4205C2.98445 9.63147 3.2706 9.75 3.56897 9.75H4.94397V12.148C4.94397 12.2495 5.05897 12.309 5.14197 12.249L8.60597 9.75H11.819C12.1173 9.75 12.4035 9.63147 12.6145 9.4205C12.8254 9.20952 12.944 8.92337 12.944 8.625V3.375C12.944 3.07663 12.8254 2.79048 12.6145 2.5795C12.4035 2.36853 12.1173 2.25 11.819 2.25H3.56897ZM1.69397 3.375C1.69397 2.87772 1.89151 2.40081 2.24314 2.04917C2.59478 1.69754 3.07169 1.5 3.56897 1.5H11.819C12.3163 1.5 12.7932 1.69754 13.1448 2.04917C13.4964 2.40081 13.694 2.87772 13.694 3.375V8.625C13.694 9.12228 13.4964 9.59919 13.1448 9.95083C12.7932 10.3025 12.3163 10.5 11.819 10.5H8.84847L5.58097 12.8575C5.00197 13.275 4.19397 12.8615 4.19397 12.1475V10.5H3.56897C3.07169 10.5 2.59478 10.3025 2.24314 9.95083C1.89151 9.59919 1.69397 9.12228 1.69397 8.625V3.375Z" fill="#FF5678"/>
</svg>
