<svg width="18" height="18" viewBox="0 0 18 18" fill="none" xmlns="http://www.w3.org/2000/svg">
<path d="M13.2093 11.637C14.2986 10.1505 14.7865 8.30754 14.5754 6.47678C14.3642 4.64602 13.4696 2.9625 12.0705 1.76301C10.6714 0.563527 8.87101 -0.063455 7.02948 0.00750229C5.18796 0.0784596 3.44113 0.842123 2.13847 2.14571C0.835816 3.4493 0.073402 5.19668 0.00376251 7.03825C-0.065877 8.87983 0.562393 10.6798 1.76288 12.078C2.96336 13.4763 4.64753 14.3697 6.47844 14.5795C8.30935 14.7894 10.152 14.3001 11.6377 13.2097H11.6365C11.6703 13.2547 11.7063 13.2975 11.7468 13.3391L16.078 17.6704C16.289 17.8815 16.5752 18.0001 16.8736 18.0002C17.172 18.0003 17.4583 17.8819 17.6694 17.6709C17.8805 17.46 17.9991 17.1738 17.9992 16.8754C17.9993 16.577 17.8809 16.2907 17.6699 16.0796L13.3387 11.7484C13.2984 11.7077 13.2552 11.67 13.2093 11.6359V11.637ZM13.4995 7.31249C13.4995 8.12504 13.3395 8.92964 13.0285 9.68034C12.7176 10.431 12.2618 11.1132 11.6873 11.6877C11.1127 12.2623 10.4306 12.718 9.6799 13.029C8.9292 13.3399 8.1246 13.5 7.31204 13.5C6.49949 13.5 5.69489 13.3399 4.94419 13.029C4.19349 12.718 3.51138 12.2623 2.93682 11.6877C2.36226 11.1132 1.90649 10.431 1.59554 9.68034C1.28459 8.92964 1.12455 8.12504 1.12455 7.31249C1.12455 5.67146 1.77644 4.09765 2.93682 2.93727C4.0972 1.77689 5.67102 1.12499 7.31204 1.12499C8.95307 1.12499 10.5269 1.77689 11.6873 2.93727C12.8476 4.09765 13.4995 5.67146 13.4995 7.31249Z" fill="black"/>
</svg>
