<svg width="15" height="13" viewBox="0 0 15 13" fill="none" xmlns="http://www.w3.org/2000/svg">
<path d="M13.8658 2.47814C13.6564 1.99319 13.3544 1.55374 12.9768 1.18439C12.5989 0.813927 12.1533 0.519528 11.6643 0.317199C11.1572 0.106563 10.6134 -0.00125279 10.0643 1.09826e-05C9.29397 1.09826e-05 8.54241 0.210948 7.88928 0.609386C7.73303 0.704698 7.58459 0.809386 7.44397 0.923449C7.30334 0.809386 7.15491 0.704698 6.99866 0.609386C6.34553 0.210948 5.59397 1.09826e-05 4.82366 1.09826e-05C4.26897 1.09826e-05 3.73147 0.106261 3.22366 0.317199C2.73303 0.520324 2.29084 0.812511 1.91116 1.18439C1.53303 1.55333 1.23097 1.99288 1.02209 2.47814C0.804907 2.98282 0.69397 3.51876 0.69397 4.07032C0.69397 4.59064 0.80022 5.13282 1.01116 5.68439C1.18772 6.14532 1.44084 6.62345 1.76428 7.10626C2.27678 7.87032 2.98147 8.6672 3.85647 9.47501C5.30647 10.8141 6.74241 11.7391 6.80334 11.7766L7.17366 12.0141C7.33772 12.1188 7.54866 12.1188 7.71272 12.0141L8.08303 11.7766C8.14397 11.7375 9.57834 10.8141 11.0299 9.47501C11.9049 8.6672 12.6096 7.87032 13.1221 7.10626C13.4455 6.62345 13.7002 6.14532 13.8752 5.68439C14.0862 5.13282 14.1924 4.59064 14.1924 4.07032C14.194 3.51876 14.083 2.98282 13.8658 2.47814ZM7.44397 10.7781C7.44397 10.7781 1.88147 7.21407 1.88147 4.07032C1.88147 2.47814 3.19866 1.18751 4.82366 1.18751C5.96584 1.18751 6.95647 1.82501 7.44397 2.75626C7.93147 1.82501 8.9221 1.18751 10.0643 1.18751C11.6893 1.18751 13.0065 2.47814 13.0065 4.07032C13.0065 7.21407 7.44397 10.7781 7.44397 10.7781Z" fill="#FF5678"/>
</svg>
