<svg width="16" height="17" viewBox="0 0 16 17" fill="none" xmlns="http://www.w3.org/2000/svg">
<path d="M3 15.5H9C9.26514 15.4997 9.51934 15.3943 9.70681 15.2068C9.89429 15.0193 9.99974 14.7651 10 14.5V13H9V14.5H3V2.5H9V4H10V2.5C9.99974 2.23486 9.89429 1.98066 9.70681 1.79319C9.51934 1.60571 9.26514 1.50026 9 1.5H3C2.73486 1.50026 2.48066 1.60571 2.29319 1.79319C2.10571 1.98066 2.00026 2.23486 2 2.5V14.5C2.00026 14.7651 2.10571 15.0193 2.29319 15.2068C2.48066 15.3943 2.73486 15.4997 3 15.5Z" fill="black"/>
<path d="M10.293 10.793L12.086 9H5V8H12.086L10.293 6.207L11 5.5L14 8.5L11 11.5L10.293 10.793Z" fill="black"/>
</svg>
