<svg width="19" height="19" viewBox="0 0 19 19" fill="none" xmlns="http://www.w3.org/2000/svg">
<path d="M18.6804 2.95337C18.0185 3.31417 17.3074 3.55796 16.5598 3.66816C17.3312 3.10041 17.9082 2.20685 18.1834 1.1542C17.4587 1.6837 16.6655 2.05641 15.8384 2.25613C15.2822 1.5256 14.5455 1.0414 13.7427 0.87869C12.9398 0.715982 12.1158 0.883875 11.3985 1.3563C10.6812 1.82873 10.1107 2.57926 9.77567 3.49136C9.44064 4.40347 9.35978 5.42613 9.54565 6.40055C8.07725 6.30986 6.64075 5.84037 5.3294 5.02256C4.01804 4.20475 2.86113 3.05689 1.93374 1.65348C1.61665 2.32634 1.43432 3.10647 1.43432 3.9373C1.43396 4.68524 1.5837 5.42173 1.87023 6.08142C2.15676 6.7411 2.57124 7.30359 3.07688 7.71897C2.49047 7.69602 1.917 7.5011 1.40419 7.15045V7.20896C1.40413 8.25798 1.69912 9.27472 2.2391 10.0867C2.77907 10.8986 3.53078 11.4557 4.36667 11.6635C3.82268 11.8446 3.25234 11.8713 2.69874 11.7415C2.93458 12.6441 3.39397 13.4334 4.01261 13.9989C4.63124 14.5644 5.37814 14.8778 6.14875 14.8952C4.8406 16.1584 3.22503 16.8436 1.56195 16.8406C1.26735 16.8407 0.973002 16.8195 0.68042 16.7772C2.36855 18.1124 4.33364 18.821 6.3406 18.8182C13.1344 18.8182 16.8484 11.8966 16.8484 5.89347C16.8484 5.69844 16.8444 5.50146 16.8373 5.30642C17.5597 4.66377 18.1833 3.86796 18.6788 2.95629L18.6804 2.95337Z" fill="#282B39"/>
</svg>
