<svg width="16" height="15" viewBox="0 0 16 15" fill="none" xmlns="http://www.w3.org/2000/svg">
<path d="M14.526 0.486846L14.9193 0.88018C15.4613 1.42285 15.3793 2.38485 14.7346 3.02885L6.62331 11.1402L3.99531 12.1015C3.66531 12.2228 3.34397 12.0655 3.27864 11.7515C3.25656 11.6376 3.26696 11.5198 3.30864 11.4115L4.28864 8.76085L12.3773 0.671513C13.022 0.0275129 13.984 -0.0551537 14.526 0.487513V0.486846ZM6.26931 1.29351C6.35685 1.29351 6.44355 1.31076 6.52443 1.34426C6.60531 1.37776 6.67881 1.42687 6.74071 1.48878C6.80262 1.55068 6.85172 1.62417 6.88523 1.70506C6.91873 1.78594 6.93597 1.87263 6.93597 1.96018C6.93597 2.04773 6.91873 2.13442 6.88523 2.2153C6.85172 2.29619 6.80262 2.36968 6.74071 2.43158C6.67881 2.49349 6.60531 2.5426 6.52443 2.5761C6.44355 2.6096 6.35685 2.62685 6.26931 2.62685H3.60264C3.24902 2.62685 2.90988 2.76732 2.65983 3.01737C2.40978 3.26742 2.26931 3.60656 2.26931 3.96018V11.9602C2.26931 12.3138 2.40978 12.6529 2.65983 12.903C2.90988 13.153 3.24902 13.2935 3.60264 13.2935H11.6026C11.9563 13.2935 12.2954 13.153 12.5455 12.903C12.7955 12.6529 12.936 12.3138 12.936 11.9602V9.29351C12.936 9.1167 13.0062 8.94713 13.1312 8.82211C13.2563 8.69708 13.4258 8.62685 13.6026 8.62685C13.7795 8.62685 13.949 8.69708 14.074 8.82211C14.1991 8.94713 14.2693 9.1167 14.2693 9.29351V11.9602C14.2693 12.6674 13.9884 13.3457 13.4883 13.8458C12.9882 14.3459 12.3099 14.6268 11.6026 14.6268H3.60264C2.8954 14.6268 2.21712 14.3459 1.71702 13.8458C1.21693 13.3457 0.935974 12.6674 0.935974 11.9602V3.96018C0.935974 3.25294 1.21693 2.57466 1.71702 2.07456C2.21712 1.57446 2.8954 1.29351 3.60264 1.29351H6.26931Z" fill="black"/>
</svg>
